<?xml version="1.0" encoding="UTF-8"?>
<svg id="Camada_2" data-name="Camada 2" xmlns="http://www.w3.org/2000/svg" xmlns:xlink="http://www.w3.org/1999/xlink" viewBox="0 0 287.61 371.55">
  <defs>
    <style>
      .cls-1 {
        fill: url(#Gradiente_sem_nome_4);
      }

      .cls-1, .cls-2, .cls-3, .cls-4, .cls-5, .cls-6, .cls-7, .cls-8, .cls-9, .cls-10 {
        stroke-width: 0px;
      }

      .cls-2 {
        fill: url(#Gradiente_sem_nome_4-3);
      }

      .cls-3 {
        fill: url(#Gradiente_sem_nome_4-4);
      }

      .cls-4 {
        fill: url(#Gradiente_sem_nome_4-2);
      }

      .cls-5 {
        fill: url(#Gradiente_sem_nome_4-5);
      }

      .cls-6 {
        fill: #dadd40;
      }

      .cls-7 {
        fill: #fff1b8;
      }

      .cls-8 {
        fill: #fff;
      }

      .cls-9 {
        fill: #fbf8f5;
      }

      .cls-10 {
        fill: #00b3dd;
      }
    </style>
    <linearGradient id="Gradiente_sem_nome_4" data-name="Gradiente sem nome 4" x1="125.17" y1="207.38" x2="223.69" y2="207.38" gradientUnits="userSpaceOnUse">
      <stop offset="0" stop-color="#67c7ea"/>
      <stop offset="1" stop-color="#0089b3"/>
    </linearGradient>
    <linearGradient id="Gradiente_sem_nome_4-2" data-name="Gradiente sem nome 4" x1="13.1" y1="349.23" x2="58.05" y2="349.23" xlink:href="#Gradiente_sem_nome_4"/>
    <linearGradient id="Gradiente_sem_nome_4-3" data-name="Gradiente sem nome 4" x1="146.3" y1="349.23" x2="190.53" y2="349.23" xlink:href="#Gradiente_sem_nome_4"/>
    <linearGradient id="Gradiente_sem_nome_4-4" data-name="Gradiente sem nome 4" x1="0" y1="160.37" x2="62.76" y2="160.37" xlink:href="#Gradiente_sem_nome_4"/>
    <linearGradient id="Gradiente_sem_nome_4-5" data-name="Gradiente sem nome 4" x1="88.57" y1="93.58" x2="193.81" y2="93.58" xlink:href="#Gradiente_sem_nome_4"/>
  </defs>
  <g id="Camada_1-2" data-name="Camada 1">
    <g>
      <g>
        <path class="cls-10" d="m265.46,20.34c-.85,0-1.58.51-1.93,1.22-.31.35-.32.61-1.1.76-.53.1-4.23,1.3-6.64,5.06-2.4,3.76-3.13,5.37-3.19,6.23-.06.85.56.47.82-.06.26-.54,1.15-2.67,2.11-4.01,1.29-1.79,1.59-3.69,6.41-6.19,0,0,1.11-.54,1.45,0,.31.82,1.14,1.34,2.07,1.34,1.2,0,2.17-.97,2.17-2.17s-.97-2.17-2.17-2.17Z"/>
        <path class="cls-6" d="m238.3,84.99c-5.13,1.83-5.16,1.48-8.95,1.67h-2.2c-.46,0-.81-.03-1.15-.05-.03,0-.05,0-.11-.03,0,0-.03.03-.05,0-.13,0-.32-.03-.51-.05l-.64-.75c-14.99-16.9-18.8-32.26-19.69-40.48-.03-.16-.05-.32-.05-.48-.03-.38-.05-.73-.08-1.07-.16-2.1-.11-3.55-.05-4.24.64-.78,1.34-1.53,2.07-2.26.22-.21.43-.4.65-.56,4.97-4.16,8.68-5.88,8.68-5.88v.59c0,2.01.08,4,.24,5.91.19,2.2.48,4.38.86,6.47.13.81.3,1.61.48,2.42.16.91.38,1.8.62,2.69.7,2.77,1.53,5.43,2.44,7.92.35.94.7,1.85,1.07,2.74,2.82,6.9,6.29,12.63,9.29,16.84.27.38.54.75.78,1.07.27.38.51.7.75,1.02.24.32.48.64.73.94.24.3.46.59.67.86.46.56.89,1.07,1.26,1.53.27.3.48.59.73.83.64.75,1.18,1.32,1.56,1.72.08.11.19.19.27.27.22.24.35.38.35.38Z"/>
        <path class="cls-10" d="m225.32,86.53c-.16,0-.3-.03-.43-.03h-.11c-2.47-.08-7.79-.62-12.2-3.2-.91-.54-1.77-1.07-2.55-1.64-.19-.13-.38-.27-.56-.38-3.73-2.42-6.82-5.64-8.95-9.54-.22-.08-.48,0-.97,0-.3,0-9.19,2.07-5.72-1.85,2.39-2.74,3.55-4.14,4.08-4.81.3-.38.38-.51.38-.51-1.21-6.31-.4-9.13-.4-9.13.38-4.81,2.42-9.29,4.19-12.33.05-.08.11-.16.13-.21.78-1.18,1.64-2.31,2.58-3.41-.05.7-.11,2.15.05,4.24.03.35.05.7.08,1.07,0,.16.03.32.05.48.89,8.22,4.7,23.59,19.69,40.48l.64.75Z"/>
        <path class="cls-6" d="m263.95,54.84c-.36,10.42-6.77,20.55-17.08,26.45,1.83-1.16,3.04-2.1,3.04-2.1-1.96-1.75-3.76-3.57-5.4-5.48-1.07-1.26-2.1-2.53-3.04-3.84-2.98-4.14-5.29-8.43-7.09-12.71-.48-1.16-.94-2.31-1.37-3.47-.24-.67-.48-1.32-.7-1.99-.89-2.66-1.59-5.24-2.15-7.66-1.93-8.57-2.1-15.34-2.1-17.33,15.1-2.28,29.58,4.89,34.38,18,.59,1.58.99,3.2,1.26,4.84.11.81.19,1.58.22,2.31.03.56.05,1.13.05,1.64,0,.47-.01.91-.03,1.33Z"/>
        <path class="cls-7" d="m231.3,25.66c.11-.01.23-.03.34-.04-.11.01-.23.03-.34.04Z"/>
        <path class="cls-9" d="m226.15,16.72c0,.11,0,.23.01.34,0-.11,0-.23-.01-.34Z"/>
        <path class="cls-10" d="m228.04,26.53c-.15.2-.31.4-.32.6,0-.2.17-.4.32-.6Z"/>
        <path class="cls-10" d="m244.5,73.71c-1.07-1.26-2.1-2.53-3.04-3.84-2.98-4.14-5.29-8.43-7.09-12.71-.51-1.16-.94-2.31-1.37-3.47-.24-.67-.48-1.32-.7-1.99-.89-2.66-1.59-5.24-2.15-7.66-1.93-8.57-2.1-15.34-2.1-17.33-2.52.35-5.08.99-7.6,1.93-.7.27-1.37.54-2.04.83-.03,0-.05.03-.08.03-1.48.75-2.15,1.26-2.15,1.26v.59c0,2.01.08,4,.24,5.91.19,2.2.48,4.38.86,6.47.13.81.3,1.61.48,2.42.19.91.4,1.8.62,2.69.7,2.77,1.53,5.43,2.44,7.92.35.94.7,1.85,1.07,2.74,2.82,6.9,6.29,12.63,9.29,16.84.27.38.54.75.78,1.07.27.38.51.7.75,1.02.24.32.48.64.73.94.24.3.46.59.67.86.46.56.89,1.07,1.26,1.53.27.3.48.59.73.83.67.75,1.21,1.34,1.56,1.72.08.11.19.19.27.27.22.24.35.38.35.38.05,0,.17-.04.46-.11.3-.08.36-.11.78-.28.12-.05.49-.16.91-.29,1.85-.54,3.35-1.28,4.94-2.17.54-.3,1.02-.59,1.48-.86,1.83-1.16,3.04-2.1,3.04-2.1-1.96-1.75-3.76-3.57-5.4-5.48Z"/>
        <ellipse class="cls-10" cx="243.46" cy="47.5" rx="2.59" ry="3.98"/>
        <ellipse class="cls-10" cx="258.7" cy="47.31" rx="2.59" ry="3.98"/>
        <path class="cls-10" d="m220.9,33.22s4.11-5.12,4.8-12.58c.7-7.46-2.53-12.26-4.42-14.98-1.9-2.72-5.18-4.42-5.18-4.42,0,0-2.97-1.96-7.02-.95s-4.64,8.06-4.61,10.56c.03,2.65.63,16.5,11.95,24.65,0,0,2.02,2.72,4.49-2.28Z"/>
        <path class="cls-10" d="m211.36,33.35s-3.98-8.98-11.57-10.24c-7.58-1.26-11.69,2.17-12.2,2.84s-2.65,2.97.25,6.83c2.91,3.86,12.01,6.19,12.01,6.19,0,0,6.41,1.49,10.87-.63l1.71-.82s0-1.68-1.07-4.17Z"/>
        <path class="cls-10" d="m251.22,59.44c3.27-.17,4.97-2.34,5.2-5.33,0,0-.03-.54-.81-.55-.75,0-.83.55-.83.55-.21,2.21-1.61,4.03-3.72,4.03-2.11,0-3.51-1.83-3.72-4.03,0,0-.08-.55-.83-.55-.78,0-.81.55-.81.55.23,2.99,1.93,5.17,5.26,5.33h.26Z"/>
        <path class="cls-10" d="m248.84,17.4c-.93,0-1.71.59-2.02,1.41h0s-.28,1.18-.62,1.45-1.07.86-2.73,3.73c-1.66,2.87-1.23,10.23-1.23,10.23,0,0,.01.45.26.62.22.16.81.28.57-.95-.15-.8-.06-3.01.03-4.44.07-1.14.25-2.26.59-3.36.39-1.29.72-2.68,2.09-4.12,0,0,.74-.82,1.23-.92.4.43,1.21.68,1.84.68,1.2,0,2.17-.97,2.17-2.17s-.97-2.17-2.17-2.17Z"/>
      </g>
      <g>
        <path class="cls-8" d="m62.76,3.91s.07.03.07.03c.04,0,.04-.03.04-.03h-.11Z"/>
        <path class="cls-6" d="m281.34,184.04l-38.72-67.08c-.65-1.12-1.32-2.22-2.07-3.26-.44-.63-.9-1.28-1.4-1.89-.42-.6-.93-1.17-1.43-1.74-.29-.4-.6-.75-.95-1.1-.46-.59-.97-1.12-1.5-1.61-.03-.07-.08-.11-.14-.14-1.29-1.29-2.66-2.51-4.09-3.62-.48-.4-1.02-.79-1.57-1.16-3-2.22-6.25-4.02-9.67-5.37-.75-.33-1.51-.6-2.25-.86-2-.75-4.07-1.29-6.18-1.72-3-.61-6.06-.93-9.21-.93h-80.25c-9.32,0-18.29,3.15-25.47,8.63-2.67,2.07-6.33.9-7.52-1.93-.22-.56-.37-1.21-.37-1.88V13.8c0-.37-.03-.68-.11-.99-.05-.34-.14-.61-.29-.9-.05-.22-.16-.39-.27-.57-.11-.22-.26-.44-.44-.61-.11-.18-.25-.31-.38-.46-.15-.1-.29-.25-.44-.35-.15-.14-.33-.25-.5-.33-.04-.03-.07-.03-.11-.03v-.04c-.14-.08-.29-.14-.46-.22-.29-.14-.57-.2-.89-.29-.33-.05-.68-.11-1.01-.11h-49.9c-2.71,0-4.9,2.19-4.9,4.9v302.56c0,2.21,1.44,4.02,3.43,4.67.11.03.18.03.29.08.08.03.15.03.22.03.31.05.65.11.97.11h49.9c.53,0,1.08-.08,1.58-.29,1.93-.64,3.31-2.47,3.31-4.6,0-.37.04-.71.11-1.05.04-.25.12-.5.2-.71.74-1.93,2.59-3.15,4.59-3.15,1.04,0,2.11.37,2.98,1.08,4.4,3.35,9.42,5.82,14.83,7.25.11.04.25.07.39.1.82.19,1.61.37,2.42.54,1.43.3,2.89.46,4.36.61.14,0,.25.03.39.03.31,0,.67.05.98.05.68.05,1.4.05,2.08.05h80.25c8.24,0,16.18-2.14,23.1-6.14t.07-.03c7.07-3.99,13.1-9.9,17.32-17.22l38.68-67.08c8.36-14.41,8.36-32.22,0-46.66Zm-53.17,33.52l-.53,1.05-22.36,38.69c-3.57,6.21-9.89,10.28-16.89,11.06-.86.15-1.7.18-2.57.18h-44.69c-6.07,0-11.78-2.45-15.96-6.7-.2-.18-.4-.4-.57-.61-.5-.54-.95-1.08-1.39-1.63-.57-.71-1.08-1.5-1.57-2.29l-1.96-3.43-20.35-35.26c-4-6.93-4-15.54,0-22.46l4.1-7.15,18.21-31.56c.49-.79.99-1.57,1.57-2.27,4.21-5.61,10.83-8.96,17.92-8.96h44.69c1.58,0,3.15.16,4.64.5.25.04.48.1.71.15,1.28.31,2.51.72,3.69,1.24.03.03.07.03.07.03,4.29,1.93,7.95,5.15,10.35,9.32l20.85,36.11,1.51,2.6c3.77,6.61,3.99,14.67.53,21.41Z"/>
        <path class="cls-1" d="m221.18,217.17l-.56,1.05-22.85,39.55c-3,5.16-7.9,9.11-13.44,10.77h-43.2c-6.07,0-11.78-2.45-15.96-6.7h30.52c8.02,0,15.46-4.32,19.48-11.25l22.32-38.69.57-1.04c3.43-6.76,3.25-14.86-.57-21.42l-1.5-2.6-20.82-36.15c-.95-1.63-2.14-3.16-3.49-4.48h14.14c1.58,0,3.15.16,4.64.5,2.7,2.52,6.01,6.67,7.31,8.99l21.3,36.92,1.55,2.63c3.88,6.74,4.07,15.02.56,21.91Z"/>
        <path class="cls-6" d="m81.24,353.69c0,6.18-3.11,11.6-7.89,14.78-1.43.96-2.96,1.75-4.64,2.25-1.68.54-3.46.82-5.32.82-.82,0-1.61-.07-2.39-.18-.04-.04-.11-.04-.14-.04-.14,0-.25-.04-.36-.07-.14-.04-.29-.04-.39-.07-.14-.04-.32-.04-.5-.07-.07-.04-.18-.07-.29-.07-.39-.07-.75-.14-1.14-.29-7.32-2.21-12.64-9.03-12.64-17.06,0-9.85,8-17.85,17.85-17.85,1.11,0,2.18.11,3.21.29.11.04.18.04.29.07.25.04.5.11.75.18.75.18,1.5.39,2.25.71.43.14.82.32,1.21.5.32.14.64.32.93.5.46.25.89.5,1.32.82.5.32.93.64,1.39,1.04.43.36.86.75,1.25,1.14.39.39.79.79,1.14,1.21v.04c.64.75,1.21,1.57,1.71,2.43.29.46.54.96.79,1.5.14.32.29.68.43,1.04.14.36.25.71.36,1.07.14.46.29.89.36,1.36.18.71.29,1.43.36,2.14.07.61.11,1.21.11,1.82Z"/>
        <path class="cls-6" d="m214.22,353.69c0,6.18-3.14,11.6-7.85,14.78-1.43.96-3,1.75-4.68,2.25-1.68.54-3.46.82-5.32.82-1.11,0-2.18-.11-3.25-.32-.11,0-.21,0-.36-.04-.11-.04-.21-.07-.36-.11-.11,0-.25-.07-.36-.11-.32-.04-.64-.14-1-.25-7.25-2.25-12.5-9.03-12.5-17.03,0-9.85,7.96-17.85,17.81-17.85,1.11,0,2.18.11,3.21.29.11.04.18.04.29.07.25.04.5.11.71.18.79.14,1.54.39,2.29.71.39.14.82.32,1.21.5.82.39,1.64.86,2.39,1.43.43.25.86.57,1.25.93.39.32.79.64,1.14,1,.5.5.96,1,1.43,1.57.32.39.61.79.89,1.21.68,1.04,1.28,2.14,1.75,3.32.14.32.25.64.36.96.43,1.25.71,2.53.82,3.86.07.61.11,1.21.11,1.82Z"/>
        <path class="cls-4" d="m48.48,369.33s-.11-.04-.14-.04c-.11,0-.18-.04-.29-.04-.11-.04-.18-.07-.29-.07-.11-.04-.18-.07-.29-.07-.11-.04-.18-.04-.29-.07-.11-.04-.18-.04-.29-.07-.11,0-.18-.04-.29-.07-.11,0-.18-.04-.29-.07-.11,0-.18-.04-.29-.04-.11-.04-.18-.07-.29-.07-.11-.04-.18-.07-.29-.07-.11-.04-.18-.04-.29-.07s-.18-.04-.29-.07c-.11,0-.18-.04-.29-.07-.11,0-.18-.04-.29-.07-.11,0-.18-.04-.29-.04-.11-.04-.18-.07-.29-.07-.11-.04-.18-.07-.29-.07-.11-.04-.18-.07-.29-.07-.11-.04-.18-.04-.29-.07-.11,0-.18-.04-.29-.07-.11,0-.18-.04-.29-.07-.11,0-.18-.04-.29-.07-.11,0-.21-.04-.29-.04-.11-.04-.21-.07-.29-.07-.11-.04-.21-.07-.29-.07-.11-.04-.21-.04-.29-.07-.11-.04-.21-.04-.29-.07-.11,0-.21-.04-.29-.07-.11,0-.21-.04-.29-.07-.11,0-.21-.04-.29-.04-.11-.04-.21-.07-.29-.07-.11-.04-.21-.07-.29-.07-.11-.04-.21-.04-.29-.07-.11-.04-.21-.04-.29-.07-.11,0-.21-.04-.29-.07-.11,0-.21-.04-.29-.07-.11,0-.21-.04-.29-.07-.11,0-.21-.04-.29-.04-.11-.04-.21-.07-.29-.07-.11-.04-.21-.07-.29-.07-.11-.04-.21-.04-.29-.07-.11,0-.21-.04-.29-.07-.11,0-.21-.04-.32-.07-.07,0-.18-.04-.25-.07-.11,0-.21-.04-.32-.04-.07-.04-.18-.07-.29-.07-.07-.04-.18-.07-.29-.07-.07-.04-.18-.04-.29-.07-.07-.04-.18-.04-.29-.07-.07,0-.18-.04-.29-.07-.07,0-.18-.04-.29-.07-.07,0-.18-.04-.29-.04-.07-.04-.18-.07-.29-.07-.07-.04-.18-.07-.29-.07-.07-.04-.18-.04-.29-.07-.07-.04-.18-.04-.29-.07-.07,0-.18-.04-.29-.07-.07,0-.18-.04-.29-.07-.07,0-.18-.04-.29-.04-.07-.04-.18-.07-.29-.07-.07-.04-.18-.07-.29-.07-.07-.04-.18-.07-.29-.07-.07-.04-.18-.04-.29-.07-.07,0-.18-.04-.29-.07-.07,0-.18-.04-.29-.07-.11,0-.18-.04-.29-.07-.11,0-.18-.04-.29-.04-.11-.04-.18-.07-.29-.07-.11-.04-.18-.07-.29-.07-.11-.04-.18-.04-.29-.07s-.18-.04-.29-.07c-.11,0-.18-.04-.29-.07-.11,0-.18-.04-.29-.07-8.18-1.61-14.35-8.82-14.35-17.49,0-9.85,8-17.81,17.85-17.81,1.28,0,2.53.14,3.78.39.07.04.18.07.29.07.07.04.18.04.29.07.07.04.18.04.29.07.07,0,.18.04.29.07.07,0,.18.04.29.07.07,0,.18.04.29.07.07,0,.18.04.29.04.07.04.18.07.29.07.07.04.18.07.29.07.07.04.18.04.29.07.07.04.18.04.29.07.07,0,.18.04.29.07.07,0,.18.04.29.07.11,0,.18.04.29.04.11.04.18.07.29.07.11.04.18.07.29.07.11.04.18.04.29.07s.18.04.29.07c.11,0,.18.04.29.07.11,0,.18.04.29.07.11,0,.18.04.29.04.11.04.18.07.29.07.11.04.18.07.29.07.11.04.18.04.29.07s.18.04.29.07c.11,0,.18.04.29.07.11,0,.18.04.29.07.11,0,.18.04.29.07.11,0,.18.04.29.04.11.04.18.07.29.07.11.04.18.07.29.07.11.04.18.04.29.07.11.04.18.04.29.07.11,0,.18.04.29.07.11,0,.18.04.29.07.11,0,.18.04.29.04.11.04.18.07.29.07.11.04.18.07.29.07.11.04.18.04.29.07.11.04.18.04.29.07.11,0,.21.04.29.07.11,0,.21.04.29.07.11,0,.21.04.29.04.11.04.21.07.29.07.11.04.21.07.29.07.11.04.21.07.29.07.11.04.21.04.29.07.11,0,.21.04.29.07.11,0,.21.04.29.07.11,0,.21.04.29.07.11,0,.21.04.29.04.11.04.21.07.29.07.11.04.21.07.29.07.11.04.21.04.29.07.11.04.21.04.29.07.11,0,.21.04.29.07.11,0,.21.04.29.07.11,0,.21.04.29.04.11.04.21.07.29.07.11.04.21.07.29.07.11.04.21.04.29.07.11.04.21.04.29.07.11,0,.21.04.32.07.07,0,.18.04.25.07.11,0,.21.04.32.04.07.04.18.07.29.07.07.04.18.07.29.07.07.04.18.04.29.07.07.04.18.04.29.07.07,0,.18.04.29.07.07,0,.18.04.29.07.07,0,.18.04.29.07.07,0,.18.04.29.04.07.04.18.07.29.07.07.04.18.07.29.07.07.04.18.04.29.07.07.04.18.04.29.07.07,0,.18.04.29.07.07,0,.18.04.29.07.07,0,.18.04.29.04.07.04.18.07.29.07.03.04.07.04.14.04-.39-.07-.79-.07-1.21-.07-10.1,0-18.24,8.18-18.24,18.24,0,7.07,4,13.21,9.89,16.21Z"/>
        <path class="cls-2" d="m181.68,369.33s-.07-.04-.14-.04c-.11,0-.18-.04-.29-.04-.11-.04-.18-.07-.29-.07-.11-.04-.18-.07-.29-.07-.11-.04-.18-.04-.29-.07s-.18-.04-.29-.07c-.11,0-.18-.04-.29-.07-.11,0-.18-.04-.29-.07-.11,0-.18-.04-.29-.04-.11-.04-.18-.07-.29-.07-.11-.04-.18-.07-.29-.07-.11-.04-.18-.04-.29-.07-.11-.04-.18-.04-.29-.07-.11,0-.18-.04-.29-.07-.11,0-.18-.04-.29-.07-.11,0-.18-.04-.29-.04-.11-.04-.18-.07-.29-.07-.11-.04-.18-.07-.29-.07-.11-.04-.18-.07-.29-.07-.11-.04-.18-.04-.29-.07-.11,0-.18-.04-.29-.07-.11,0-.18-.04-.29-.07-.11,0-.18-.04-.29-.07-.11,0-.18-.04-.29-.04-.11-.04-.18-.07-.29-.07-.11-.04-.18-.07-.29-.07-.11-.04-.18-.04-.29-.07-.11-.04-.18-.04-.29-.07-.11,0-.21-.04-.29-.07-.11,0-.21-.04-.29-.07-.11,0-.21-.04-.29-.04-.11-.04-.21-.07-.29-.07-.11-.04-.21-.07-.29-.07-.11-.04-.21-.04-.29-.07-.11-.04-.21-.04-.29-.07-.11,0-.21-.04-.29-.07-.11,0-.21-.04-.29-.07-.11,0-.21-.04-.29-.07-.11,0-.21-.04-.29-.04-.11-.04-.21-.07-.29-.07-.11-.04-.21-.07-.29-.07-.11-.04-.21-.04-.29-.07-.11,0-.21-.04-.29-.07-.11,0-.21-.04-.29-.07-.11,0-.21-.04-.29-.07-.11,0-.21-.04-.29-.04-.11-.04-.21-.07-.29-.07-.11-.04-.21-.07-.29-.07-.11-.04-.21-.04-.29-.07-.11-.04-.21-.04-.29-.07-.11,0-.21-.04-.29-.07-.11,0-.21-.04-.32-.07-.07,0-.18-.04-.29-.04-.07-.04-.18-.07-.29-.07-.07-.04-.18-.07-.29-.07-.07-.04-.18-.04-.29-.07-.07-.04-.18-.04-.29-.07-.07,0-.18-.04-.29-.07-.07,0-.18-.04-.29-.07-.07,0-.18-.04-.29-.04-.07-.04-.18-.07-.29-.07-.07-.04-.18-.07-.29-.07-.07-.04-.18-.07-.29-.07-.07-.04-.18-.04-.29-.07-.07,0-.18-.04-.29-.07-.07,0-.18-.04-.29-.07-.07,0-.18-.04-.29-.07-.07,0-.18-.04-.29-.04-.07-.04-.18-.07-.29-.07-.07-.04-.18-.07-.29-.07-.07-.04-.18-.04-.29-.07-.11-.04-.18-.04-.29-.07-.11,0-.18-.04-.29-.07-.11,0-.18-.04-.29-.07-8.17-1.61-14.35-8.82-14.35-17.49,0-9.85,8-17.81,17.85-17.81,1.29,0,2.57.14,3.78.39.07.04.18.07.29.07.07.04.18.04.29.07.07.04.18.04.29.07.07,0,.18.04.29.07.07,0,.18.04.29.07.07,0,.18.04.29.07.11,0,.18.04.29.04.07.04.18.07.29.07.11.04.18.07.29.07.11.04.18.04.29.07s.18.04.29.07c.11,0,.18.04.29.07.11,0,.18.04.29.07.11,0,.18.04.29.04.11.04.18.07.29.07.11.04.18.07.29.07.11.04.18.04.29.07s.18.04.29.07c.11,0,.18.04.29.07.11,0,.18.04.29.07.11,0,.18.04.29.04.11.04.18.07.29.07.11.04.18.07.29.07.11.04.18.04.29.07s.18.04.29.07c.11,0,.18.04.29.07.11,0,.18.04.29.07.11,0,.18.04.29.07.11,0,.18.04.29.04.11.04.18.07.29.07.11.04.18.07.29.07.11.04.18.04.29.07s.18.04.29.07c.11,0,.18.04.29.07.11,0,.18.04.29.07.11,0,.18.04.29.04.11.04.18.07.29.07.11.04.21.07.29.07.11.04.21.04.29.07.11.04.21.04.29.07.11,0,.21.04.29.07.11,0,.21.04.29.07.11,0,.21.04.29.04.11.04.21.07.29.07.11.04.21.07.29.07.11.04.21.07.29.07.11.04.21.04.29.07.11,0,.21.04.29.07.11,0,.21.04.29.07.11,0,.21.04.29.07.11,0,.21.04.29.04.11.04.21.07.29.07.11.04.21.07.29.07.11.04.21.04.29.07.11.04.21.04.29.07.11,0,.21.04.29.07.11,0,.21.04.29.07.11,0,.21.04.32.04.07.04.18.07.29.07.07.04.18.07.29.07.07.04.18.04.29.07.07.04.18.04.29.07.07,0,.18.04.29.07.07,0,.18.04.29.07.07,0,.18.04.29.04.07.04.18.07.29.07.07.04.18.07.29.07.07.04.18.04.29.07.07.04.18.04.29.07.07,0,.18.04.29.07.07,0,.18.04.29.07.07,0,.18.04.29.07.07,0,.18.04.29.04.07.04.18.07.29.07.07.04.18.07.29.07.07.04.18.04.29.07.07.04.18.04.29.07.07,0,.18.04.29.07.11,0,.18.04.29.07-.25-.04-.5-.04-.75-.04-10.07,0-18.24,8.14-18.24,18.24,0,7.18,4.14,13.35,10.14,16.32Z"/>
        <path class="cls-3" d="m62.65,3.86s-.05-.03-.11,0c0,0-.03-.03-.07-.03-.03-.03-.07-.03-.11-.03-.03-.04-.07-.04-.11,0,0,0-.03-.04-.05-.04-.05-.04-.08-.04-.11-.04-.04-.03-.08-.03-.11,0,0,0-.04-.03-.07-.03-.08-.04-.16-.04-.22-.04-.15-.07-.29-.11-.42-.11h-.05s-.03-.03-.07,0h-.03s-.04-.03-.08-.03c-.03-.05-.05-.05-.11-.05-.03-.03-.05-.03-.11,0,0,0-.03-.03-.05-.03-.04-.03-.08-.03-.12-.03-.03-.03-.05-.03-.11,0,0,0-.03-.03-.05-.03-.04-.05-.08-.05-.11-.05-.04-.03-.08-.03-.11,0,0,0-.04-.03-.07-.03-.05-.04-.08-.04-.11-.04-.03-.03-.08-.03-.11,0,0,0-.04-.03-.08-.03-.07-.04-.14-.04-.2-.04-.14-.07-.29-.1-.42-.1h-.05s-.03-.05-.05,0h-.04q-.04-.05-.07-.05s-.08-.03-.12-.03c-.03-.03-.05-.03-.11,0,0,0-.03-.03-.05-.03-.04-.05-.08-.05-.11-.05-.04-.03-.07-.03-.11,0,0,0-.04-.03-.07-.03-.04-.03-.08-.03-.11-.03-.03-.04-.08-.04-.11,0,0,0-.04-.04-.07-.04-.04-.04-.08-.04-.11-.04-.03-.04-.08-.04-.11,0,0,0-.03-.04-.08-.04-.05-.03-.14-.05-.2-.03-.14-.08-.29-.11-.42-.11h-.04s-.04-.03-.07,0h-.03c-.05-.03-.08-.08-.11-.03-.08-.05-.15-.08-.23-.05t-.05-.03c-.05-.03-.08-.03-.11-.03t-.08,0s-.07-.04-.11-.04c-.04-.04-.07-.04-.1-.04q-.05-.03-.08,0s-.07-.03-.11-.03h-.1c-.4-.11-.83-.2-1.25-.2H4.89C2.18,2.17,0,4.33,0,7.04v302.59c0,2.44,1.74,4.4,4.07,4.78q.04.05.07.05h.03q.05.03.08,0h.03q.05.03.08.03s.07.04.11.04.07.03.1,0q.05.03.08.03s.07.04.11.04c.03,0,.07.04.11,0t.07.04s.07.03.11.03c.03,0,.05.04.11,0t.07.04s.07.04.11.04c.03,0,.07.03.11,0t.05.03c.08.03.15.03.22.03.15.08.29.11.44.11h.03s.04.04.08,0h.03q.05.04.08.04s.05.04.11.04c.03,0,.07.03.1,0t.08.03s.07.04.11.04c.03,0,.05.04.11,0t.05.04s.08.04.12.04c.03,0,.07.03.11,0t.05.03c.05.03.08.03.11.03.04,0,.08.05.11,0q.04.05.07.05c.08.03.16.03.22.03.15.07.29.11.42.11h.05s.03.03.07,0h.03s.04.03.08.03c.03.04.05.04.11.04.03,0,.05.03.11,0t.05.03s.08.04.12.04c.03,0,.05.04.11,0t.05.04s.08.03.11.03c.04,0,.08.05.11,0q.04.05.07.05s.08.03.11.03.08.03.11,0t.07.03s.08.03.11.03c.04,0,.08.05.11,0q.03.05.08.05c.05.03.14.03.2.03.14.07.29.11.42.11h.04s.04.04.07,0h.05s.03.04.05.04c.03.03.08.03.11.03.04,0,.07.03.11,0t.07.03c.03.05.08.05.11.05s.08.03.11,0t.07.03s.08.03.11.03.08.05.11,0q.03.05.08.05s.05.03.1.03.07.03.11,0t.08.03c.05.04.14.04.16.04.11.04.22.08.31.08.11.03.23.05.3.05.15.05.29.08.39.08.03.03.07.03.1.03h.08c.03.05.07.05.11.05.03.03.07.03.1.03h.08s.07.03.11.03c.03.04.05.04.11.04h.05s.08.04.12.04c.03.03.05.03.14.03.11.04.22.07.37.07.08.05.25.08.38.08.15.05.29.11.46.14.08.04.18.04.29.08.08,0,.19.03.29.07.07,0,.18.03.3.07h.05s.11.04.18.04c.15.05.3.11.48.11h.03s.04.03.08,0h.03s.03.03.08.03c.03.03.05.03.1.03h.07s.04.04.07.04h.04s.07.04.12.04h.03c.11.04.25.07.4.11h.03s.08.04.11.04h.07c.11.03.22.05.33.05.07.05.18.08.29.08.05.03.18.07.29.07.07.04.16.04.27.07.08.04.19.04.29.08.08.03.19.03.29.07.11,0,.19.03.3.08.07,0,.18.03.29.03.11.03.18.07.29.07.11.04.16.07.27.07.12.04.18.07.29.07.11.04.19.04.29.08.11.03.19.03.3.07h.03c-.03-.15-.03-.29-.03-.46V8.89c0-2.78,2.23-4.98,4.99-4.98h36.02c-.03-.05-.07-.05-.11-.05Z"/>
        <path class="cls-5" d="m193.78,90.41h-.11v-.04h-.14l-.04-.03h-.08s-.03,0-.03-.04h-.14s-.04-.04-.04-.04h-.07s-.04,0-.04-.03h-.11s-.05-.05-.05-.05h-.05c-.05,0-.14-.03-.18-.03-.03,0-.07-.03-.07-.03-.2-.03-.46-.11-.68-.15h-.07s-.07-.07-.11-.03c-.03-.04-.07-.04-.11-.04h-.14s-.03-.04-.03-.04h-.04s-.04-.03-.08-.03h-.14s-.03,0-.03-.03c-.11,0-.22-.05-.34-.08-.05,0-.14,0-.2-.03-.07-.05-.11-.05-.18-.05-.04-.03-.07-.03-.1-.03h-.05s-.11-.03-.14-.03h-.04s-.07-.04-.11-.04h-.03s-.03-.04-.08-.04h-.05s-.08-.04-.11-.04h-.08s-.04-.03-.04-.03h-.11s-.05-.03-.05-.03h-.08s-.03-.05-.03-.05h-.11s-.07-.03-.07-.03h-.08s-.03,0-.03-.03h-.11s-.07-.05-.07-.05h-.08s-.07-.03-.11-.03h-.05s-.05-.03-.08-.03h-.03s-.08-.04-.12-.04h-.07s-.04-.04-.07-.04-.11-.03-.18-.03h-.07s-.07-.04-.15-.04c-.03-.03-.08-.03-.14-.03-.04-.05-.08-.05-.15-.05h-.03s-.08-.03-.11-.03h-.03c-.05-.03-.08-.05-.16-.03-.03-.03-.05-.03-.1-.03h-.08c-.03-.05-.05-.08-.11-.05-.03-.03-.05-.03-.1-.03h-.04c-.14-.08-.31-.11-.49-.11h-.04s-.07-.04-.15-.04c-.03-.03-.05-.03-.11-.03h-.03s-.07-.08-.15-.04c-.03-.04-.07-.04-.11-.04h-.05c-.05-.03-.08-.05-.11-.03h-.04s-.04-.03-.07-.03h-.15s0-.05-.03-.05h-.05s-.1,0-.14-.03h-.1s-.04-.03-.04-.03h-.04s-.11,0-.14-.04h-.03c-.23-.08-.45-.11-.65-.15,0,0,0-.04-.03-.04h-.08c-.14-.03-.25-.05-.4-.11h-.11c-.07-.03-.11-.03-.14-.03-.04,0-.04-.03-.07-.03h-.04c-3.24-.72-6.61-1.1-10.02-1.1h-80.3c-1.5,0-2.96.1-4.43.29v11.24c0,.67.15,1.32.37,1.88.53-.14,1.19-.45,1.89-.99,7.31-5.64,16.45-8.85,25.97-8.85h77.01v-.03h-.03Z"/>
      </g>
    </g>
  </g>
</svg>