<?xml version="1.0" encoding="UTF-8"?>
<svg id="Camada_2" data-name="Camada 2" xmlns="http://www.w3.org/2000/svg" xmlns:xlink="http://www.w3.org/1999/xlink" viewBox="0 0 387.16 456.23">
  <defs>
    <style>
      .cls-1 {
        clip-path: url(#clippath);
      }

      .cls-2 {
        fill: none;
      }

      .cls-2, .cls-3, .cls-4, .cls-5, .cls-6, .cls-7, .cls-8, .cls-9, .cls-10, .cls-11, .cls-12, .cls-13, .cls-14, .cls-15, .cls-16, .cls-17, .cls-18, .cls-19, .cls-20, .cls-21, .cls-22, .cls-23, .cls-24, .cls-25, .cls-26, .cls-27, .cls-28, .cls-29, .cls-30, .cls-31, .cls-32, .cls-33, .cls-34, .cls-35, .cls-36, .cls-37, .cls-38, .cls-39, .cls-40, .cls-41, .cls-42, .cls-43, .cls-44, .cls-45, .cls-46, .cls-47, .cls-48, .cls-49, .cls-50, .cls-51, .cls-52, .cls-53, .cls-54, .cls-55, .cls-56, .cls-57, .cls-58, .cls-59, .cls-60, .cls-61, .cls-62, .cls-63, .cls-64, .cls-65, .cls-66, .cls-67, .cls-68, .cls-69, .cls-70, .cls-71, .cls-72, .cls-73, .cls-74, .cls-75, .cls-76, .cls-77, .cls-78, .cls-79, .cls-80, .cls-81, .cls-82, .cls-83, .cls-84, .cls-85, .cls-86, .cls-87, .cls-88, .cls-89, .cls-90, .cls-91, .cls-92, .cls-93, .cls-94, .cls-95, .cls-96 {
        stroke-width: 0px;
      }

      .cls-97 {
        clip-path: url(#clippath-1);
      }

      .cls-98 {
        clip-path: url(#clippath-4);
      }

      .cls-99 {
        clip-path: url(#clippath-3);
      }

      .cls-100 {
        clip-path: url(#clippath-2);
      }

      .cls-3 {
        fill: #4ab6da;
      }

      .cls-4 {
        fill: #60c3e6;
      }

      .cls-5 {
        fill: #4bb5d9;
      }

      .cls-6 {
        fill: #48b4d9;
      }

      .cls-7 {
        fill: #45b2d6;
      }

      .cls-8 {
        fill: #45b2d7;
      }

      .cls-9 {
        fill: #5ec3e7;
      }

      .cls-10 {
        fill: #5dc2e6;
      }

      .cls-11 {
        fill: #5dc2e5;
      }

      .cls-12 {
        fill: #44b0d5;
      }

      .cls-13 {
        fill: #4db6da;
      }

      .cls-14 {
        fill: #46b3d8;
      }

      .cls-15 {
        fill: #4cb6db;
      }

      .cls-16 {
        fill: #259fc6;
      }

      .cls-17 {
        fill: #4db8db;
      }

      .cls-18 {
        fill: #4fb8dc;
      }

      .cls-19 {
        fill: #53bce0;
      }

      .cls-20 {
        fill: #5ac1e4;
      }

      .cls-21 {
        fill: #47b2d7;
      }

      .cls-22 {
        fill: #49b5d9;
      }

      .cls-23 {
        fill: #54bde1;
      }

      .cls-24 {
        fill: #29a0c8;
      }

      .cls-25 {
        fill: #2aa2c8;
      }

      .cls-26 {
        fill: #27a0c7;
      }

      .cls-27 {
        fill: #5bc1e5;
      }

      .cls-28 {
        fill: #5ac0e4;
      }

      .cls-29 {
        fill: #61c3e8;
      }

      .cls-30 {
        fill: #61c4e7;
      }

      .cls-31 {
        fill: #52b9de;
      }

      .cls-32 {
        fill: #52badf;
      }

      .cls-33 {
        fill: #51b9dd;
      }

      .cls-34 {
        fill: #2ea4cb;
      }

      .cls-35 {
        fill: #37a9ce;
      }

      .cls-36 {
        fill: #30a5cb;
      }

      .cls-37 {
        fill: #2ca3ca;
      }

      .cls-38 {
        fill: #33a7ce;
      }

      .cls-39 {
        fill: #33a7cd;
      }

      .cls-40 {
        fill: #59bee3;
      }

      .cls-41 {
        fill: #59bfe3;
      }

      .cls-42 {
        fill: #38aacf;
      }

      .cls-43 {
        fill: #38aad0;
      }

      .cls-44 {
        fill: #57bee2;
      }

      .cls-45 {
        fill: #55bce0;
      }

      .cls-46 {
        fill: #55bee2;
      }

      .cls-47 {
        fill: #3aabd0;
      }

      .cls-48 {
        fill: #1997bf;
      }

      .cls-49 {
        fill: #1997be;
      }

      .cls-50 {
        fill: #3cacd1;
      }

      .cls-51 {
        fill: #088eb7;
      }

      .cls-52 {
        fill: #1696be;
      }

      .cls-53 {
        fill: #0c90b8;
      }

      .cls-54 {
        fill: #3dadd2;
      }

      .cls-55 {
        fill: #35a8ce;
      }

      .cls-56 {
        fill: #3faed3;
      }

      .cls-57 {
        fill: #3faed2;
      }

      .cls-58 {
        fill: #43b1d5;
      }

      .cls-59 {
        fill: #0f92bb;
      }

      .cls-60 {
        fill: #0f90ba;
      }

      .cls-61 {
        fill: #0d8fb9;
      }

      .cls-62 {
        fill: #1a99c0;
      }

      .cls-63 {
        fill: #1090b9;
      }

      .cls-64 {
        fill: #3eaed3;
      }

      .cls-65 {
        fill: #0b8eb7;
      }

      .cls-66 {
        fill: #42afd4;
      }

      .cls-67 {
        fill: #1395bd;
      }

      .cls-68 {
        fill: #40afd4;
      }

      .cls-69 {
        fill: #098cb6;
      }

      .cls-70 {
        fill: #0a8eb6;
      }

      .cls-71 {
        fill: #1f9bc3;
      }

      .cls-72 {
        fill: #1f9bc2;
      }

      .cls-73 {
        fill: #209dc4;
      }

      .cls-74 {
        fill: #1d9cc3;
      }

      .cls-75 {
        fill: #1d9ac2;
      }

      .cls-76 {
        fill: #1d9ac1;
      }

      .cls-77 {
        fill: #1c98bf;
      }

      .cls-78 {
        fill: #1c98c0;
      }

      .cls-79 {
        fill: #1595bd;
      }

      .cls-80 {
        fill: #229ec5;
      }

      .cls-81 {
        fill: #1393bc;
      }

      .cls-82 {
        fill: #1292ba;
      }

      .cls-83 {
        fill: #dadd40;
      }

      .cls-84 {
        fill: #32a5cc;
      }

      .cls-85 {
        fill: #2fa5cb;
      }

      .cls-86 {
        fill: #2fa4ca;
      }

      .cls-87 {
        fill: #64c6e9;
      }

      .cls-88 {
        fill: #fff1b8;
      }

      .cls-89 {
        fill: #fff;
      }

      .cls-90 {
        fill: #fbf8f5;
      }

      .cls-91 {
        fill: #00b3dd;
      }

      .cls-92 {
        fill: #048cb5;
      }

      .cls-93 {
        fill: #66c6ea;
      }

      .cls-94 {
        fill: #0089b3;
      }

      .cls-95 {
        fill: #008ab4;
      }

      .cls-96 {
        fill: #67c7ea;
      }
    </style>
    <clipPath id="clippath">
      <path class="cls-2" d="m115.14,1.51s-.05-.02-.1,0c0,0-.02-.02-.06-.02-.02-.02-.06-.02-.1-.02-.02-.04-.06-.04-.1,0,0,0-.02-.04-.05-.04-.05-.04-.07-.04-.1-.04-.04-.02-.07-.02-.1,0,0,0-.04-.02-.06-.02-.07-.04-.15-.04-.2-.04-.13-.06-.26-.1-.38-.1h-.05s-.02-.02-.06,0h-.02s-.04-.02-.07-.02c-.02-.05-.05-.05-.1-.05-.02-.02-.05-.02-.1,0,0,0-.02-.02-.05-.02-.04-.02-.07-.02-.11-.02-.02-.02-.05-.02-.1,0,0,0-.02-.02-.05-.02-.04-.05-.07-.05-.1-.05-.04-.02-.07-.02-.1,0,0,0-.04-.02-.06-.02-.05-.04-.07-.04-.1-.04-.02-.02-.07-.02-.1,0,0,0-.04-.02-.07-.02-.06-.04-.12-.04-.18-.04-.12-.06-.26-.09-.38-.09h-.05s-.02-.05-.05,0h-.04s-.04-.05-.06-.05c-.04-.02-.07-.02-.11-.02-.02-.02-.05-.02-.1,0,0,0-.02-.02-.05-.02-.04-.05-.07-.05-.1-.05-.04-.02-.06-.02-.1,0,0,0-.04-.02-.06-.02-.04-.02-.07-.02-.1-.02-.02-.04-.07-.04-.1,0,0,0-.04-.04-.06-.04-.04-.04-.07-.04-.1-.04-.02-.04-.07-.04-.1,0,0,0-.02-.04-.07-.04-.05-.02-.12-.05-.18-.02-.12-.07-.26-.1-.38-.1h-.04s-.04-.02-.06,0h-.02s-.07-.07-.1-.02c-.07-.05-.13-.07-.21-.05t-.05-.02s-.07-.02-.1-.02t-.07,0s-.06-.04-.1-.04c-.04-.04-.06-.04-.09-.04t-.07,0s-.06-.02-.1-.02h-.09c-.35-.1-.74-.18-1.12-.18h-44.74c-2.43,0-4.38,1.94-4.38,4.37v271.18c0,2.18,1.56,3.94,3.65,4.28t.06.05h.02s.05.02.07,0h.02s.05.02.07.02c.02.04.06.04.1.04s.06.02.09,0t.07.02s.06.04.1.04c.02,0,.06.04.1,0t.06.04s.06.02.1.02c.02,0,.05.04.1,0t.06.04s.06.04.1.04c.02,0,.06.02.1,0t.05.02c.07.02.13.02.2.02.13.07.26.1.39.1h.02s.04.04.07,0h.02s.05.04.07.04c.02.04.05.04.1.04.02,0,.06.02.09,0t.07.02s.06.04.1.04c.02,0,.05.04.1,0t.05.04s.07.04.11.04c.02,0,.06.02.1,0t.05.02s.07.02.1.02c.04,0,.07.05.1,0t.06.05c.07.02.15.02.2.02.13.06.26.1.38.1h.05s.02.02.06,0h.02s.04.02.07.02c.02.04.05.04.1.04.02,0,.05.02.1,0t.05.02s.07.04.11.04c.02,0,.05.04.1,0t.05.04s.07.02.1.02c.04,0,.07.05.1,0t.06.05s.07.02.1.02.07.02.1,0t.06.02s.07.02.1.02c.04,0,.07.05.1,0t.07.05s.12.02.18.02c.12.06.26.1.38.1h.04s.04.04.06,0h.05s.02.04.05.04c.02.02.07.02.1.02.04,0,.06.02.1,0t.06.02s.07.05.1.05.07.02.1,0t.06.02s.07.02.1.02.07.05.1,0t.07.05s.05.02.09.02.06.02.1,0t.07.02s.12.04.15.04c.1.04.2.07.28.07.1.02.21.05.27.05.13.05.26.07.35.07.02.02.06.02.09.02h.07s.06.05.1.05c.02.02.06.02.09.02h.07s.06.02.1.02c.02.04.05.04.1.04h.05s.07.04.11.04c.02.02.05.02.12.02.1.04.2.06.33.06.07.05.22.07.34.07.13.05.26.1.42.12.07.04.16.04.26.07.07,0,.17.02.26.06.06,0,.16.02.27.06h.05s.1.04.16.04c.13.05.27.1.43.1h.02s.04.02.07,0h.02s.02.02.07.02c.02.02.05.02.09.02h.06s.04.04.06.04h.04s.06.04.11.04h.02c.1.04.22.06.35.1h.02s.07.04.1.04h.06c.1.02.2.05.29.05.06.05.16.07.26.07.05.02.16.06.26.06.06.04.15.04.24.06.07.04.17.04.26.07.07.02.17.02.26.06.1,0,.17.02.27.07.06,0,.16.02.26.02.1.02.16.06.26.06.1.04.15.06.24.06.11.04.16.06.26.06.1.04.17.04.26.07.1.02.17.02.27.06h.02c-.02-.13-.02-.26-.02-.41V6.03c0-2.49,2-4.47,4.47-4.47h32.29s-.06-.05-.1-.05Zm117.52,77.57h-.1v-.04h-.12l-.04-.02h-.07s-.02,0-.02-.04h-.12s-.04-.04-.04-.04h-.06s-.04,0-.04-.02h-.1s-.05-.05-.05-.05h-.05s-.12-.02-.16-.02c-.02,0-.06-.02-.06-.02-.18-.02-.42-.1-.61-.13h-.06s-.06-.06-.1-.02c-.02-.04-.06-.04-.1-.04h-.12s-.02-.04-.02-.04h-.04s-.04-.02-.07-.02h-.12s-.02,0-.02-.02c-.1,0-.2-.05-.31-.07-.05,0-.12,0-.18-.02-.06-.05-.1-.05-.16-.05-.04-.02-.06-.02-.09-.02h-.05s-.1-.02-.12-.02h-.04s-.06-.04-.1-.04h-.02s-.02-.04-.07-.04h-.05s-.07-.04-.1-.04h-.07s-.04-.02-.04-.02h-.1s-.05-.02-.05-.02h-.07s-.02-.05-.02-.05h-.1s-.06-.02-.06-.02h-.07s-.02,0-.02-.02h-.1s-.06-.05-.06-.05h-.07s-.06-.02-.1-.02h-.05s-.05-.02-.07-.02h-.02s-.07-.04-.11-.04h-.06s-.04-.04-.06-.04-.1-.02-.16-.02h-.06s-.06-.04-.13-.04c-.02-.02-.07-.02-.12-.02-.04-.05-.07-.05-.13-.05h-.02s-.07-.02-.1-.02h-.02s-.07-.05-.15-.02c-.02-.02-.05-.02-.09-.02h-.07s-.05-.07-.1-.05c-.02-.02-.05-.02-.09-.02h-.04c-.12-.07-.28-.1-.44-.1h-.04s-.06-.04-.13-.04c-.02-.02-.05-.02-.1-.02h-.02s-.06-.07-.13-.04c-.02-.04-.06-.04-.1-.04h-.05s-.07-.05-.1-.02h-.04s-.04-.02-.06-.02h-.13s0-.05-.02-.05h-.05s-.09,0-.12-.02h-.09s-.04-.02-.04-.02h-.04s-.1,0-.12-.04h-.02c-.21-.07-.4-.1-.59-.13,0,0,0-.04-.02-.04h-.07c-.12-.02-.22-.05-.35-.1h-.1c-.06-.02-.1-.02-.12-.02-.04,0-.04-.02-.06-.02h-.04c-2.91-.65-5.92-.99-8.98-.99h-71.97c-1.34,0-2.65.09-3.97.26v10.07c0,.6.13,1.18.33,1.68.48-.12,1.06-.4,1.7-.89,6.55-5.05,14.74-7.93,23.28-7.93h69.01v-.02h-.02Z"/>
    </clipPath>
    <clipPath id="clippath-1">
      <path class="cls-2" d="m102.44,329.06s-.1-.03-.13-.03c-.1,0-.16-.03-.26-.03-.1-.03-.16-.06-.26-.06-.1-.03-.16-.06-.26-.06-.1-.03-.16-.03-.26-.06-.1-.03-.16-.03-.26-.06-.1,0-.16-.03-.26-.06-.1,0-.16-.03-.26-.06-.1,0-.16-.03-.26-.03-.1-.03-.16-.06-.26-.06-.1-.03-.16-.06-.26-.06-.1-.03-.16-.03-.26-.06s-.16-.03-.26-.06c-.1,0-.16-.03-.26-.06-.1,0-.16-.03-.26-.06-.1,0-.16-.03-.26-.03-.1-.03-.16-.06-.26-.06-.1-.03-.16-.06-.26-.06-.1-.03-.16-.06-.26-.06-.1-.03-.16-.03-.26-.06-.1,0-.16-.03-.26-.06-.1,0-.16-.03-.26-.06-.1,0-.16-.03-.26-.06-.1,0-.19-.03-.26-.03-.1-.03-.19-.06-.26-.06-.1-.03-.19-.06-.26-.06-.1-.03-.19-.03-.26-.06-.1-.03-.19-.03-.26-.06-.1,0-.19-.03-.26-.06-.1,0-.19-.03-.26-.06-.1,0-.19-.03-.26-.03-.1-.03-.19-.06-.26-.06-.1-.03-.19-.06-.26-.06-.1-.03-.19-.03-.26-.06-.1-.03-.19-.03-.26-.06-.1,0-.19-.03-.26-.06-.1,0-.19-.03-.26-.06-.1,0-.19-.03-.26-.06-.1,0-.19-.03-.26-.03-.1-.03-.19-.06-.26-.06-.1-.03-.19-.06-.26-.06-.1-.03-.19-.03-.26-.06-.1,0-.19-.03-.26-.06-.1,0-.19-.03-.29-.06-.06,0-.16-.03-.22-.06-.1,0-.19-.03-.29-.03-.06-.03-.16-.06-.26-.06-.06-.03-.16-.06-.26-.06-.06-.03-.16-.03-.26-.06-.06-.03-.16-.03-.26-.06-.06,0-.16-.03-.26-.06-.06,0-.16-.03-.26-.06-.06,0-.16-.03-.26-.03-.06-.03-.16-.06-.26-.06-.06-.03-.16-.06-.26-.06-.06-.03-.16-.03-.26-.06-.06-.03-.16-.03-.26-.06-.06,0-.16-.03-.26-.06-.06,0-.16-.03-.26-.06-.06,0-.16-.03-.26-.03-.06-.03-.16-.06-.26-.06-.06-.03-.16-.06-.26-.06-.06-.03-.16-.06-.26-.06-.06-.03-.16-.03-.26-.06-.06,0-.16-.03-.26-.06-.06,0-.16-.03-.26-.06-.1,0-.16-.03-.26-.06-.1,0-.16-.03-.26-.03-.1-.03-.16-.06-.26-.06-.1-.03-.16-.06-.26-.06-.1-.03-.16-.03-.26-.06s-.16-.03-.26-.06c-.1,0-.16-.03-.26-.06-.1,0-.16-.03-.26-.06-7.33-1.44-12.86-7.9-12.86-15.68,0-8.83,7.17-15.97,16-15.97,1.15,0,2.27.13,3.39.35.06.03.16.06.26.06.06.03.16.03.26.06.06.03.16.03.26.06.06,0,.16.03.26.06.06,0,.16.03.26.06.06,0,.16.03.26.06.06,0,.16.03.26.03.06.03.16.06.26.06.06.03.16.06.26.06.06.03.16.03.26.06.06.03.16.03.26.06.06,0,.16.03.26.06.06,0,.16.03.26.06.1,0,.16.03.26.03.1.03.16.06.26.06.1.03.16.06.26.06.1.03.16.03.26.06s.16.03.26.06c.1,0,.16.03.26.06.1,0,.16.03.26.06.1,0,.16.03.26.03.1.03.16.06.26.06.1.03.16.06.26.06.1.03.16.03.26.06s.16.03.26.06c.1,0,.16.03.26.06.1,0,.16.03.26.06.1,0,.16.03.26.06.1,0,.16.03.26.03.1.03.16.06.26.06.1.03.16.06.26.06.1.03.16.03.26.06.1.03.16.03.26.06.1,0,.16.03.26.06.1,0,.16.03.26.06.1,0,.16.03.26.03.1.03.16.06.26.06.1.03.16.06.26.06.1.03.16.03.26.06.1.03.16.03.26.06.1,0,.19.03.26.06.1,0,.19.03.26.06.1,0,.19.03.26.03.1.03.19.06.26.06.1.03.19.06.26.06.1.03.19.06.26.06.1.03.19.03.26.06.1,0,.19.03.26.06.1,0,.19.03.26.06.1,0,.19.03.26.06.1,0,.19.03.26.03.1.03.19.06.26.06.1.03.19.06.26.06.1.03.19.03.26.06.1.03.19.03.26.06.1,0,.19.03.26.06.1,0,.19.03.26.06.1,0,.19.03.26.03.1.03.19.06.26.06.1.03.19.06.26.06.1.03.19.03.26.06.1.03.19.03.26.06.1,0,.19.03.29.06.06,0,.16.03.22.06.1,0,.19.03.29.03.06.03.16.06.26.06.06.03.16.06.26.06.06.03.16.03.26.06.06.03.16.03.26.06.06,0,.16.03.26.06.06,0,.16.03.26.06.06,0,.16.03.26.06.06,0,.16.03.26.03.06.03.16.06.26.06.06.03.16.06.26.06.06.03.16.03.26.06.06.03.16.03.26.06.06,0,.16.03.26.06.06,0,.16.03.26.06.06,0,.16.03.26.03.06.03.16.06.26.06.03.03.06.03.13.03-.35-.06-.7-.06-1.09-.06-9.05,0-16.35,7.33-16.35,16.35,0,6.33,3.58,11.84,8.86,14.53Z"/>
    </clipPath>
    <clipPath id="clippath-2">
      <path class="cls-2" d="m221.81,329.06s-.06-.03-.13-.03c-.1,0-.16-.03-.26-.03-.1-.03-.16-.06-.26-.06-.1-.03-.16-.06-.26-.06-.1-.03-.16-.03-.26-.06s-.16-.03-.26-.06c-.1,0-.16-.03-.26-.06-.1,0-.16-.03-.26-.06-.1,0-.16-.03-.26-.03-.1-.03-.16-.06-.26-.06-.1-.03-.16-.06-.26-.06-.1-.03-.16-.03-.26-.06-.1-.03-.16-.03-.26-.06-.1,0-.16-.03-.26-.06-.1,0-.16-.03-.26-.06-.1,0-.16-.03-.26-.03-.1-.03-.16-.06-.26-.06-.1-.03-.16-.06-.26-.06-.1-.03-.16-.06-.26-.06-.1-.03-.16-.03-.26-.06-.1,0-.16-.03-.26-.06-.1,0-.16-.03-.26-.06-.1,0-.16-.03-.26-.06-.1,0-.16-.03-.26-.03-.1-.03-.16-.06-.26-.06-.1-.03-.16-.06-.26-.06-.1-.03-.16-.03-.26-.06-.1-.03-.16-.03-.26-.06-.1,0-.19-.03-.26-.06-.1,0-.19-.03-.26-.06-.1,0-.19-.03-.26-.03-.1-.03-.19-.06-.26-.06-.1-.03-.19-.06-.26-.06-.1-.03-.19-.03-.26-.06-.1-.03-.19-.03-.26-.06-.1,0-.19-.03-.26-.06-.1,0-.19-.03-.26-.06-.1,0-.19-.03-.26-.06-.1,0-.19-.03-.26-.03-.1-.03-.19-.06-.26-.06-.1-.03-.19-.06-.26-.06-.1-.03-.19-.03-.26-.06-.1,0-.19-.03-.26-.06-.1,0-.19-.03-.26-.06-.1,0-.19-.03-.26-.06-.1,0-.19-.03-.26-.03-.1-.03-.19-.06-.26-.06-.1-.03-.19-.06-.26-.06-.1-.03-.19-.03-.26-.06-.1-.03-.19-.03-.26-.06-.1,0-.19-.03-.26-.06-.1,0-.19-.03-.29-.06-.06,0-.16-.03-.26-.03-.06-.03-.16-.06-.26-.06-.06-.03-.16-.06-.26-.06-.06-.03-.16-.03-.26-.06-.06-.03-.16-.03-.26-.06-.06,0-.16-.03-.26-.06-.06,0-.16-.03-.26-.06-.06,0-.16-.03-.26-.03-.06-.03-.16-.06-.26-.06-.06-.03-.16-.06-.26-.06-.06-.03-.16-.06-.26-.06-.06-.03-.16-.03-.26-.06-.06,0-.16-.03-.26-.06-.06,0-.16-.03-.26-.06-.06,0-.16-.03-.26-.06-.06,0-.16-.03-.26-.03-.06-.03-.16-.06-.26-.06-.06-.03-.16-.06-.26-.06-.06-.03-.16-.03-.26-.06-.1-.03-.16-.03-.26-.06-.1,0-.16-.03-.26-.06-.1,0-.16-.03-.26-.06-7.33-1.44-12.86-7.9-12.86-15.68,0-8.83,7.17-15.97,16-15.97,1.15,0,2.3.13,3.39.35.06.03.16.06.26.06.06.03.16.03.26.06.06.03.16.03.26.06.06,0,.16.03.26.06.06,0,.16.03.26.06.06,0,.16.03.26.06.1,0,.16.03.26.03.06.03.16.06.26.06.1.03.16.06.26.06.1.03.16.03.26.06s.16.03.26.06c.1,0,.16.03.26.06.1,0,.16.03.26.06.1,0,.16.03.26.03.1.03.16.06.26.06.1.03.16.06.26.06.1.03.16.03.26.06s.16.03.26.06c.1,0,.16.03.26.06.1,0,.16.03.26.06.1,0,.16.03.26.03.1.03.16.06.26.06.1.03.16.06.26.06.1.03.16.03.26.06s.16.03.26.06c.1,0,.16.03.26.06.1,0,.16.03.26.06.1,0,.16.03.26.06.1,0,.16.03.26.03.1.03.16.06.26.06.1.03.16.06.26.06.1.03.16.03.26.06s.16.03.26.06c.1,0,.16.03.26.06.1,0,.16.03.26.06.1,0,.16.03.26.03.1.03.16.06.26.06.1.03.19.06.26.06.1.03.19.03.26.06.1.03.19.03.26.06.1,0,.19.03.26.06.1,0,.19.03.26.06.1,0,.19.03.26.03.1.03.19.06.26.06.1.03.19.06.26.06.1.03.19.06.26.06.1.03.19.03.26.06.1,0,.19.03.26.06.1,0,.19.03.26.06.1,0,.19.03.26.06.1,0,.19.03.26.03.1.03.19.06.26.06.1.03.19.06.26.06.1.03.19.03.26.06.1.03.19.03.26.06.1,0,.19.03.26.06.1,0,.19.03.26.06.1,0,.19.03.29.03.06.03.16.06.26.06.06.03.16.06.26.06.06.03.16.03.26.06.06.03.16.03.26.06.06,0,.16.03.26.06.06,0,.16.03.26.06.06,0,.16.03.26.03.06.03.16.06.26.06.06.03.16.06.26.06.06.03.16.03.26.06.06.03.16.03.26.06.06,0,.16.03.26.06.06,0,.16.03.26.06.06,0,.16.03.26.06.06,0,.16.03.26.03.06.03.16.06.26.06.06.03.16.06.26.06.06.03.16.03.26.06.06.03.16.03.26.06.06,0,.16.03.26.06.1,0,.16.03.26.06-.22-.03-.45-.03-.67-.03-9.02,0-16.35,7.29-16.35,16.35,0,6.43,3.71,11.97,9.09,14.62Z"/>
    </clipPath>
    <clipPath id="clippath-3">
      <path class="cls-2" d="m257.22,192.69l-.5.94-20.48,35.45c-2.69,4.63-7.08,8.17-12.05,9.66h-38.72c-5.44,0-10.56-2.2-14.31-6.01h27.35c7.19,0,13.85-3.87,17.45-10.08l20.01-34.68.51-.93c3.08-6.05,2.92-13.32-.51-19.2l-1.34-2.33-18.66-32.4c-.85-1.46-1.92-2.83-3.12-4.02h12.67c1.42,0,2.82.15,4.16.45,2.42,2.26,5.38,5.98,6.55,8.06l19.09,33.09,1.39,2.36c3.48,6.04,3.65,13.46.5,19.64Z"/>
    </clipPath>
    <clipPath id="clippath-4">
      <path class="cls-2" d="m23.95,386.84c2.23-1.27,4.9-1.91,8.01-1.91,3.73,0,7.09.98,10.09,2.93,2.99,1.95,5.36,4.78,7.08,8.48,1.72,3.7,2.58,8.07,2.58,13.1s-.86,9.4-2.58,13.1c-1.73,3.7-4.09,6.53-7.08,8.48-3,1.95-6.36,2.92-10.09,2.92-3.11,0-5.78-.63-8.01-1.91-2.23-1.27-3.94-3.01-5.13-5.21v6.53H0v-62.73h18.82v21.45c1.19-2.2,2.9-3.94,5.13-5.21Zm6.74,16.66c-1.3-1.41-2.97-2.12-5-2.12s-3.7.71-5,2.12c-1.3,1.41-1.95,3.39-1.95,5.93s.65,4.52,1.95,5.93,2.97,2.12,5,2.12,3.7-.71,5-2.12c1.3-1.41,1.95-3.39,1.95-5.93s-.65-4.52-1.95-5.93Zm72.99,9.24h-30.26c.28,4.13,2,6.19,5.17,6.19,2.03,0,3.51-.93,4.41-2.8h19.92c-.68,3.39-2.1,6.43-4.28,9.11-2.18,2.68-4.92,4.8-8.22,6.36-3.31,1.56-6.94,2.33-10.9,2.33-4.75,0-8.97-.99-12.67-2.97-3.7-1.98-6.58-4.82-8.65-8.52-2.06-3.7-3.09-8.04-3.09-13.01s1.03-9.31,3.09-13.01c2.07-3.7,4.95-6.54,8.65-8.52,3.7-1.98,7.93-2.97,12.67-2.97s8.97.98,12.68,2.93c3.7,1.95,6.58,4.73,8.65,8.35,2.06,3.62,3.09,7.88,3.09,12.8,0,1.3-.09,2.54-.26,3.73Zm-18.82-8.22c0-1.58-.51-2.78-1.53-3.6-1.02-.82-2.29-1.23-3.82-1.23-3.33,0-5.29,1.61-5.85,4.83h11.19Zm71.04,8.22h-30.26c.28,4.13,2,6.19,5.17,6.19,2.03,0,3.51-.93,4.41-2.8h19.92c-.68,3.39-2.1,6.43-4.28,9.11-2.18,2.68-4.92,4.8-8.22,6.36-3.31,1.56-6.94,2.33-10.9,2.33-4.75,0-8.97-.99-12.67-2.97-3.7-1.98-6.58-4.82-8.65-8.52-2.06-3.7-3.09-8.04-3.09-13.01s1.03-9.31,3.09-13.01c2.07-3.7,4.95-6.54,8.65-8.52,3.7-1.98,7.93-2.97,12.67-2.97s8.97.98,12.68,2.93c3.7,1.95,6.58,4.73,8.65,8.35,2.06,3.62,3.09,7.88,3.09,12.8,0,1.3-.09,2.54-.26,3.73Zm-18.82-8.22c0-1.58-.51-2.78-1.53-3.6-1.02-.82-2.29-1.23-3.82-1.23-3.33,0-5.29,1.61-5.85,4.83h11.19Zm34.29,27.21c-3.47-1.47-6.23-3.5-8.27-6.1-2.03-2.6-3.19-5.54-3.47-8.82h18.06c.22,1.41.83,2.46,1.82,3.14.99.68,2.25,1.02,3.77,1.02.96,0,1.72-.21,2.29-.64.57-.42.85-.95.85-1.57,0-1.07-.6-1.84-1.78-2.29-1.19-.45-3.19-.96-6.02-1.53-3.45-.68-6.29-1.41-8.52-2.2-2.23-.79-4.18-2.15-5.85-4.07-1.67-1.92-2.5-4.58-2.5-7.97,0-2.94.78-5.61,2.33-8.01s3.86-4.29,6.91-5.68c3.05-1.39,6.75-2.08,11.1-2.08,6.44,0,11.49,1.58,15.13,4.75,3.65,3.17,5.83,7.29,6.57,12.38h-16.7c-.28-1.3-.88-2.3-1.78-3.01-.91-.71-2.12-1.06-3.65-1.06-.96,0-1.69.18-2.2.55-.51.37-.76.92-.76,1.65,0,.96.59,1.68,1.78,2.16,1.19.48,3.08.97,5.68,1.48,3.45.68,6.36,1.44,8.73,2.29,2.37.85,4.44,2.31,6.19,4.37,1.75,2.06,2.63,4.9,2.63,8.52,0,2.83-.82,5.37-2.46,7.63-1.64,2.26-4,4.04-7.08,5.34-3.08,1.3-6.68,1.95-10.81,1.95-4.52,0-8.52-.73-12-2.2Zm86.13-41.03c3.08,3.68,4.62,8.65,4.62,14.92v27.72h-18.74v-25.35c0-2.26-.61-4.05-1.82-5.38-1.22-1.33-2.84-1.99-4.88-1.99s-3.73.66-4.92,1.99c-1.19,1.33-1.78,3.12-1.78,5.38v25.35h-18.82v-62.73h18.82v22.21c1.47-2.26,3.43-4.1,5.89-5.51,2.46-1.41,5.39-2.12,8.78-2.12,5.48,0,9.76,1.84,12.85,5.51Zm22.5,40.27c-3.84-1.98-6.85-4.82-9.03-8.52-2.17-3.7-3.26-8.04-3.26-13.01s1.09-9.31,3.26-13.01c2.17-3.7,5.19-6.54,9.03-8.52,3.84-1.98,8.17-2.97,12.97-2.97s9.13.99,12.97,2.97c3.84,1.98,6.85,4.82,9.03,8.52,2.17,3.7,3.26,8.04,3.26,13.01s-1.09,9.31-3.26,13.01c-2.18,3.7-5.19,6.54-9.03,8.52-3.84,1.98-8.17,2.97-12.97,2.97s-9.13-.99-12.97-2.97Zm17.38-15.39c1.19-1.38,1.78-3.43,1.78-6.15s-.59-4.76-1.78-6.15c-1.19-1.39-2.66-2.08-4.41-2.08s-3.22.69-4.41,2.08c-1.19,1.39-1.78,3.43-1.78,6.15s.58,4.76,1.74,6.15c1.15,1.39,2.64,2.08,4.45,2.08s3.22-.69,4.41-2.08Zm50.74-28.74c2.23-1.27,4.9-1.91,8.01-1.91,3.73,0,7.09.98,10.09,2.93,2.99,1.95,5.36,4.78,7.08,8.48,1.72,3.7,2.58,8.07,2.58,13.1s-.86,9.4-2.58,13.1c-1.73,3.7-4.09,6.53-7.08,8.48-3,1.95-6.36,2.92-10.09,2.92-3.11,0-5.78-.63-8.01-1.91-2.23-1.27-3.94-3.01-5.13-5.21v29.42h-18.82v-70.7h18.82v6.53c1.19-2.2,2.9-3.94,5.13-5.21Zm6.74,16.66c-1.3-1.41-2.97-2.12-5-2.12s-3.7.71-5,2.12c-1.3,1.41-1.95,3.39-1.95,5.93s.65,4.52,1.95,5.93c1.3,1.41,2.97,2.12,5,2.12s3.7-.71,5-2.12c1.3-1.41,1.95-3.39,1.95-5.93s-.65-4.52-1.95-5.93Z"/>
    </clipPath>
  </defs>
  <g id="Camada_1-2" data-name="Camada 1">
    <g>
      <path class="cls-91" d="m386.02,342.39c-.45,0-.83.27-1.01.64-.16.18-.17.32-.58.4-.28.05-2.22.68-3.48,2.65-1.26,1.97-1.64,2.82-1.68,3.27-.03.45.3.25.43-.03.14-.28.6-1.4,1.11-2.11.68-.94.83-1.93,3.36-3.25,0,0,.58-.29.76,0,.16.43.6.7,1.09.7.63,0,1.14-.51,1.14-1.14s-.51-1.14-1.14-1.14Z"/>
      <path class="cls-83" d="m371.76,376.35c-2.69.96-2.71.78-4.7.87h-1.16c-.24,0-.42-.01-.61-.03-.01,0-.03,0-.06-.01,0,0-.01.01-.03,0-.07,0-.17-.01-.27-.03l-.34-.39c-7.87-8.87-9.87-16.94-10.34-21.26-.01-.08-.03-.17-.03-.25-.01-.2-.03-.38-.04-.56-.08-1.1-.06-1.86-.03-2.23.34-.41.71-.8,1.09-1.18.11-.11.23-.21.34-.3,2.61-2.19,4.56-3.09,4.56-3.09v.31c0,1.06.04,2.1.13,3.1.1,1.16.25,2.3.45,3.4.07.42.16.85.25,1.27.08.48.2.94.32,1.41.37,1.45.8,2.85,1.28,4.16.18.49.37.97.56,1.44,1.48,3.62,3.3,6.63,4.88,8.84.14.2.28.39.41.56.14.2.27.37.39.54.13.17.25.34.38.49s.24.31.35.45c.24.3.47.56.66.8.14.16.25.31.38.44.34.39.62.69.82.9.04.06.1.1.14.14.11.13.18.2.18.2Z"/>
      <path class="cls-91" d="m364.95,377.15c-.08,0-.15-.01-.23-.01h-.06c-1.3-.04-4.09-.32-6.4-1.68-.48-.28-.93-.56-1.34-.86-.1-.07-.2-.14-.3-.2-1.96-1.27-3.58-2.96-4.7-5.01-.11-.04-.25,0-.51,0-.16,0-4.82,1.09-3-.97,1.26-1.44,1.86-2.17,2.14-2.52.16-.2.2-.27.2-.27-.63-3.31-.21-4.8-.21-4.8.2-2.52,1.27-4.88,2.2-6.47.03-.04.06-.08.07-.11.41-.62.86-1.21,1.35-1.79-.03.37-.06,1.13.03,2.23.01.18.03.37.04.56,0,.08.01.17.03.25.47,4.32,2.47,12.38,10.34,21.26l.34.39Z"/>
      <path class="cls-83" d="m385.23,360.51c-.19,5.47-3.56,10.79-8.97,13.89.96-.61,1.59-1.1,1.59-1.1-1.03-.92-1.97-1.88-2.83-2.88-.56-.66-1.1-1.33-1.59-2.02-1.57-2.17-2.78-4.43-3.72-6.67-.25-.61-.49-1.21-.72-1.82-.13-.35-.25-.69-.37-1.04-.47-1.4-.83-2.75-1.13-4.02-1.02-4.5-1.1-8.05-1.1-9.1,7.93-1.2,15.53,2.57,18.05,9.45.31.83.52,1.68.66,2.54.06.42.1.83.11,1.21.01.3.03.59.03.86,0,.25,0,.48-.02.7Z"/>
      <g>
        <g>
          <g class="cls-1">
            <rect class="cls-47" x="138.37" y="75.92" width=".66" height="12.01"/>
            <rect class="cls-47" x="139.02" y="75.92" width="1.7" height="12.01"/>
            <rect class="cls-42" x="140.73" y="75.92" width="1.7" height="12.01"/>
            <rect class="cls-43" x="142.43" y="75.92" width="1.7" height="12.01"/>
            <rect class="cls-35" x="144.13" y="75.92" width="1.7" height="12.01"/>
            <rect class="cls-35" x="145.84" y="75.92" width="1.7" height="12.01"/>
            <rect class="cls-55" x="147.54" y="75.92" width="1.7" height="12.01"/>
            <rect class="cls-38" x="149.24" y="75.92" width="1.7" height="12.01"/>
            <rect class="cls-39" x="150.95" y="75.92" width="1.7" height="12.01"/>
            <rect class="cls-84" x="152.65" y="75.92" width="1.7" height="12.01"/>
            <rect class="cls-85" x="154.35" y="75.92" width="1.7" height="12.01"/>
            <rect class="cls-36" x="156.05" y="75.92" width="1.7" height="12.01"/>
            <rect class="cls-34" x="157.76" y="75.92" width="1.7" height="12.01"/>
            <rect class="cls-86" x="159.46" y="75.92" width="1.7" height="12.01"/>
            <rect class="cls-37" x="161.16" y="75.92" width="1.7" height="12.01"/>
            <rect class="cls-25" x="162.87" y="75.92" width="1.7" height="12.01"/>
            <rect class="cls-24" x="164.57" y="75.92" width="1.7" height="12.01"/>
            <rect class="cls-26" x="166.27" y="75.92" width="1.7" height="12.01"/>
            <rect class="cls-26" x="167.97" y="75.92" width="1.7" height="12.01"/>
            <rect class="cls-16" x="169.68" y="75.92" width="1.7" height="12.01"/>
            <rect class="cls-80" x="171.38" y="75.92" width="1.7" height="12.01"/>
            <rect class="cls-80" x="173.08" y="75.92" width="1.7" height="12.01"/>
            <rect class="cls-73" x="174.79" y="75.92" width="1.7" height="12.01"/>
            <rect class="cls-73" x="176.49" y="75.92" width="1.7" height="12.01"/>
            <rect class="cls-74" x="178.19" y="75.92" width="1.7" height="12.01"/>
            <rect class="cls-71" x="179.89" y="75.92" width="1.7" height="12.01"/>
            <rect class="cls-72" x="181.6" y="75.92" width="1.7" height="12.01"/>
            <rect class="cls-75" x="183.3" y="75.92" width="1.7" height="12.01"/>
            <rect class="cls-76" x="185" y="75.92" width="1.7" height="12.01"/>
            <rect class="cls-62" x="186.71" y="75.92" width="1.7" height="12.01"/>
            <rect class="cls-78" x="188.41" y="75.92" width="1.7" height="12.01"/>
            <rect class="cls-77" x="190.11" y="75.92" width="1.7" height="12.01"/>
            <rect class="cls-48" x="191.81" y="75.92" width="1.7" height="12.01"/>
            <rect class="cls-49" x="193.52" y="75.92" width="1.7" height="12.01"/>
            <rect class="cls-52" x="195.22" y="75.92" width="1.7" height="12.01"/>
            <rect class="cls-67" x="196.92" y="75.92" width="1.7" height="12.01"/>
            <rect class="cls-67" x="198.63" y="75.92" width="1.7" height="12.01"/>
            <rect class="cls-79" x="200.33" y="75.92" width="1.7" height="12.01"/>
            <rect class="cls-81" x="202.03" y="75.92" width="1.7" height="12.01"/>
            <rect class="cls-81" x="203.73" y="75.92" width="1.7" height="12.01"/>
            <rect class="cls-59" x="205.44" y="75.92" width="1.7" height="12.01"/>
            <rect class="cls-59" x="207.14" y="75.92" width="1.7" height="12.01"/>
            <rect class="cls-82" x="208.84" y="75.92" width="1.7" height="12.01"/>
            <rect class="cls-60" x="210.55" y="75.92" width="1.7" height="12.01"/>
            <rect class="cls-63" x="212.25" y="75.92" width="1.7" height="12.01"/>
            <rect class="cls-61" x="213.95" y="75.92" width="1.7" height="12.01"/>
            <rect class="cls-53" x="215.65" y="75.92" width="1.7" height="12.01"/>
            <rect class="cls-51" x="217.36" y="75.92" width="1.7" height="12.01"/>
            <rect class="cls-65" x="219.06" y="75.92" width="1.7" height="12.01"/>
            <rect class="cls-70" x="220.76" y="75.92" width="1.7" height="12.01"/>
            <rect class="cls-69" x="222.47" y="75.92" width="1.7" height="12.01"/>
            <rect class="cls-92" x="224.17" y="75.92" width="1.7" height="12.01"/>
            <rect class="cls-92" x="225.87" y="75.92" width="1.7" height="12.01"/>
            <rect class="cls-95" x="227.57" y="75.92" width="1.7" height="12.01"/>
            <rect class="cls-95" x="229.28" y="75.92" width="1.7" height="12.01"/>
            <rect class="cls-94" x="230.98" y="75.92" width="1.7" height="12.01"/>
            <rect class="cls-96" x="58.99" width="1.7" height="283.56"/>
            <rect class="cls-93" x="60.69" width="1.7" height="283.56"/>
            <rect class="cls-93" x="62.4" width="1.7" height="283.56"/>
            <rect class="cls-87" x="64.1" width="1.7" height="283.56"/>
            <rect class="cls-87" x="65.8" width="1.7" height="283.56"/>
            <rect class="cls-30" x="67.5" width="1.7" height="283.56"/>
            <rect class="cls-29" x="69.21" width="1.7" height="283.56"/>
            <rect class="cls-4" x="70.91" width="1.7" height="283.56"/>
            <rect class="cls-9" x="72.61" width="1.7" height="283.56"/>
            <rect class="cls-10" x="74.32" width="1.7" height="283.56"/>
            <rect class="cls-11" x="76.02" width="1.7" height="283.56"/>
            <rect class="cls-27" x="77.72" width="1.7" height="283.56"/>
            <rect class="cls-20" x="79.42" width="1.7" height="283.56"/>
            <rect class="cls-28" x="81.13" width="1.7" height="283.56"/>
            <rect class="cls-40" x="82.83" width="1.7" height="283.56"/>
            <rect class="cls-41" x="84.53" width="1.7" height="283.56"/>
            <rect class="cls-44" x="86.24" width="1.7" height="283.56"/>
            <rect class="cls-46" x="87.94" width="1.7" height="283.56"/>
            <rect class="cls-23" x="89.64" width="1.7" height="283.56"/>
            <rect class="cls-45" x="91.34" width="1.7" height="283.56"/>
            <rect class="cls-19" x="93.05" width="1.7" height="283.56"/>
            <rect class="cls-32" x="94.75" width="1.7" height="283.56"/>
            <rect class="cls-31" x="96.45" width="1.7" height="283.56"/>
            <rect class="cls-33" x="98.16" width="1.7" height="283.56"/>
            <rect class="cls-18" x="99.86" width="1.7" height="283.56"/>
            <rect class="cls-17" x="101.56" width="1.7" height="283.56"/>
            <rect class="cls-15" x="103.26" width="1.7" height="283.56"/>
            <rect class="cls-13" x="104.97" width="1.7" height="283.56"/>
            <rect class="cls-3" x="106.67" width="1.7" height="283.56"/>
            <rect class="cls-5" x="108.37" width="1.7" height="283.56"/>
            <rect class="cls-22" x="110.08" width="1.7" height="283.56"/>
            <rect class="cls-6" x="111.78" width="1.7" height="283.56"/>
            <rect class="cls-14" x="113.48" width="1.7" height="283.56"/>
            <rect class="cls-14" x="115.18" width=".05" height="283.56"/>
          </g>
          <g class="cls-97">
            <rect class="cls-96" x="70.73" y="293.03" width=".39" height="36.03"/>
            <rect class="cls-93" x="71.13" y="293.03" width=".39" height="36.03"/>
            <rect class="cls-93" x="71.52" y="293.03" width=".39" height="36.03"/>
            <rect class="cls-87" x="71.92" y="293.03" width=".39" height="36.03"/>
            <rect class="cls-87" x="72.31" y="293.03" width=".39" height="36.03"/>
            <rect class="cls-30" x="72.71" y="293.03" width=".39" height="36.03"/>
            <rect class="cls-29" x="73.1" y="293.03" width=".39" height="36.03"/>
            <rect class="cls-4" x="73.5" y="293.03" width=".39" height="36.03"/>
            <rect class="cls-9" x="73.89" y="293.03" width=".39" height="36.03"/>
            <rect class="cls-10" x="74.29" y="293.03" width=".39" height="36.03"/>
            <rect class="cls-11" x="74.68" y="293.03" width=".39" height="36.03"/>
            <rect class="cls-27" x="75.08" y="293.03" width=".39" height="36.03"/>
            <rect class="cls-20" x="75.47" y="293.03" width=".39" height="36.03"/>
            <rect class="cls-28" x="75.87" y="293.03" width=".39" height="36.03"/>
            <rect class="cls-40" x="76.26" y="293.03" width=".39" height="36.03"/>
            <rect class="cls-41" x="76.66" y="293.03" width=".39" height="36.03"/>
            <rect class="cls-44" x="77.05" y="293.03" width=".39" height="36.03"/>
            <rect class="cls-46" x="77.45" y="293.03" width=".39" height="36.03"/>
            <rect class="cls-23" x="77.84" y="293.03" width=".39" height="36.03"/>
            <rect class="cls-45" x="78.24" y="293.03" width=".39" height="36.03"/>
            <rect class="cls-19" x="78.63" y="293.03" width=".39" height="36.03"/>
            <rect class="cls-32" x="79.03" y="293.03" width=".39" height="36.03"/>
            <rect class="cls-31" x="79.42" y="293.03" width=".39" height="36.03"/>
            <rect class="cls-33" x="79.82" y="293.03" width=".39" height="36.03"/>
            <rect class="cls-18" x="80.21" y="293.03" width=".39" height="36.03"/>
            <rect class="cls-17" x="80.61" y="293.03" width=".39" height="36.03"/>
            <rect class="cls-15" x="81" y="293.03" width=".39" height="36.03"/>
            <rect class="cls-13" x="81.4" y="293.03" width=".39" height="36.03"/>
            <rect class="cls-3" x="81.79" y="293.03" width=".39" height="36.03"/>
            <rect class="cls-5" x="82.19" y="293.03" width=".39" height="36.03"/>
            <rect class="cls-22" x="82.58" y="293.03" width=".39" height="36.03"/>
            <rect class="cls-6" x="82.98" y="293.03" width=".39" height="36.03"/>
            <rect class="cls-14" x="83.37" y="293.03" width=".39" height="36.03"/>
            <rect class="cls-14" x="83.77" y="293.03" width=".39" height="36.03"/>
            <rect class="cls-21" x="84.16" y="293.03" width=".39" height="36.03"/>
            <rect class="cls-8" x="84.56" y="293.03" width=".39" height="36.03"/>
            <rect class="cls-7" x="84.95" y="293.03" width=".39" height="36.03"/>
            <rect class="cls-12" x="85.35" y="293.03" width=".39" height="36.03"/>
            <rect class="cls-58" x="85.74" y="293.03" width=".39" height="36.03"/>
            <rect class="cls-66" x="86.14" y="293.03" width=".39" height="36.03"/>
            <rect class="cls-68" x="86.53" y="293.03" width=".39" height="36.03"/>
            <rect class="cls-64" x="86.93" y="293.03" width=".39" height="36.03"/>
            <rect class="cls-56" x="87.32" y="293.03" width=".39" height="36.03"/>
            <rect class="cls-57" x="87.72" y="293.03" width=".39" height="36.03"/>
            <rect class="cls-54" x="88.11" y="293.03" width=".39" height="36.03"/>
            <rect class="cls-50" x="88.51" y="293.03" width=".39" height="36.03"/>
            <rect class="cls-47" x="88.9" y="293.03" width=".39" height="36.03"/>
            <rect class="cls-47" x="89.3" y="293.03" width=".39" height="36.03"/>
            <rect class="cls-42" x="89.69" y="293.03" width=".39" height="36.03"/>
            <rect class="cls-43" x="90.08" y="293.03" width=".39" height="36.03"/>
            <rect class="cls-35" x="90.48" y="293.03" width=".39" height="36.03"/>
            <rect class="cls-35" x="90.87" y="293.03" width=".39" height="36.03"/>
            <rect class="cls-55" x="91.27" y="293.03" width=".39" height="36.03"/>
            <rect class="cls-38" x="91.66" y="293.03" width=".39" height="36.03"/>
            <rect class="cls-39" x="92.06" y="293.03" width=".39" height="36.03"/>
            <rect class="cls-84" x="92.45" y="293.03" width=".39" height="36.03"/>
            <rect class="cls-85" x="92.85" y="293.03" width=".39" height="36.03"/>
            <rect class="cls-36" x="93.24" y="293.03" width=".39" height="36.03"/>
            <rect class="cls-34" x="93.64" y="293.03" width=".39" height="36.03"/>
            <rect class="cls-86" x="94.03" y="293.03" width=".39" height="36.03"/>
            <rect class="cls-37" x="94.43" y="293.03" width=".39" height="36.03"/>
            <rect class="cls-25" x="94.82" y="293.03" width=".39" height="36.03"/>
            <rect class="cls-24" x="95.22" y="293.03" width=".39" height="36.03"/>
            <rect class="cls-26" x="95.61" y="293.03" width=".39" height="36.03"/>
            <rect class="cls-26" x="96.01" y="293.03" width=".39" height="36.03"/>
            <rect class="cls-16" x="96.4" y="293.03" width=".39" height="36.03"/>
            <rect class="cls-80" x="96.8" y="293.03" width=".39" height="36.03"/>
            <rect class="cls-80" x="97.19" y="293.03" width=".39" height="36.03"/>
            <rect class="cls-73" x="97.59" y="293.03" width=".39" height="36.03"/>
            <rect class="cls-73" x="97.98" y="293.03" width=".39" height="36.03"/>
            <rect class="cls-74" x="98.38" y="293.03" width=".39" height="36.03"/>
            <rect class="cls-71" x="98.77" y="293.03" width=".39" height="36.03"/>
            <rect class="cls-72" x="99.17" y="293.03" width=".39" height="36.03"/>
            <rect class="cls-75" x="99.56" y="293.03" width=".39" height="36.03"/>
            <rect class="cls-76" x="99.96" y="293.03" width=".39" height="36.03"/>
            <rect class="cls-62" x="100.35" y="293.03" width=".39" height="36.03"/>
            <rect class="cls-78" x="100.75" y="293.03" width=".39" height="36.03"/>
            <rect class="cls-77" x="101.14" y="293.03" width=".39" height="36.03"/>
            <rect class="cls-48" x="101.54" y="293.03" width=".39" height="36.03"/>
            <rect class="cls-49" x="101.93" y="293.03" width=".39" height="36.03"/>
            <rect class="cls-52" x="102.33" y="293.03" width=".39" height="36.03"/>
            <rect class="cls-67" x="102.72" y="293.03" width=".39" height="36.03"/>
            <rect class="cls-67" x="103.12" y="293.03" width=".39" height="36.03"/>
            <rect class="cls-79" x="103.51" y="293.03" width=".39" height="36.03"/>
            <rect class="cls-81" x="103.91" y="293.03" width=".39" height="36.03"/>
            <rect class="cls-81" x="104.3" y="293.03" width=".39" height="36.03"/>
            <rect class="cls-59" x="104.7" y="293.03" width=".39" height="36.03"/>
            <rect class="cls-59" x="105.09" y="293.03" width=".39" height="36.03"/>
            <rect class="cls-82" x="105.49" y="293.03" width=".39" height="36.03"/>
            <rect class="cls-60" x="105.88" y="293.03" width=".39" height="36.03"/>
            <rect class="cls-63" x="106.28" y="293.03" width=".39" height="36.03"/>
            <rect class="cls-61" x="106.67" y="293.03" width=".39" height="36.03"/>
            <rect class="cls-53" x="107.07" y="293.03" width=".39" height="36.03"/>
            <rect class="cls-51" x="107.46" y="293.03" width=".39" height="36.03"/>
            <rect class="cls-65" x="107.86" y="293.03" width=".39" height="36.03"/>
            <rect class="cls-70" x="108.25" y="293.03" width=".39" height="36.03"/>
            <rect class="cls-69" x="108.65" y="293.03" width=".39" height="36.03"/>
            <rect class="cls-92" x="109.04" y="293.03" width=".39" height="36.03"/>
            <rect class="cls-92" x="109.44" y="293.03" width=".39" height="36.03"/>
            <rect class="cls-95" x="109.83" y="293.03" width=".39" height="36.03"/>
            <rect class="cls-95" x="110.23" y="293.03" width=".39" height="36.03"/>
            <rect class="cls-94" x="110.62" y="293.03" width=".39" height="36.03"/>
          </g>
          <g class="cls-100">
            <rect class="cls-96" x="190.11" y="293.03" width=".39" height="36.03"/>
            <rect class="cls-93" x="190.49" y="293.03" width=".39" height="36.03"/>
            <rect class="cls-93" x="190.88" y="293.03" width=".39" height="36.03"/>
            <rect class="cls-87" x="191.27" y="293.03" width=".39" height="36.03"/>
            <rect class="cls-87" x="191.66" y="293.03" width=".39" height="36.03"/>
            <rect class="cls-30" x="192.05" y="293.03" width=".39" height="36.03"/>
            <rect class="cls-29" x="192.44" y="293.03" width=".39" height="36.03"/>
            <rect class="cls-4" x="192.83" y="293.03" width=".39" height="36.03"/>
            <rect class="cls-9" x="193.22" y="293.03" width=".39" height="36.03"/>
            <rect class="cls-10" x="193.6" y="293.03" width=".39" height="36.03"/>
            <rect class="cls-11" x="193.99" y="293.03" width=".39" height="36.03"/>
            <rect class="cls-27" x="194.38" y="293.03" width=".39" height="36.03"/>
            <rect class="cls-20" x="194.77" y="293.03" width=".39" height="36.03"/>
            <rect class="cls-28" x="195.16" y="293.03" width=".39" height="36.03"/>
            <rect class="cls-40" x="195.55" y="293.03" width=".39" height="36.03"/>
            <rect class="cls-41" x="195.94" y="293.03" width=".39" height="36.03"/>
            <rect class="cls-44" x="196.32" y="293.03" width=".39" height="36.03"/>
            <rect class="cls-46" x="196.71" y="293.03" width=".39" height="36.03"/>
            <rect class="cls-23" x="197.1" y="293.03" width=".39" height="36.03"/>
            <rect class="cls-45" x="197.49" y="293.03" width=".39" height="36.03"/>
            <rect class="cls-19" x="197.88" y="293.03" width=".39" height="36.03"/>
            <rect class="cls-32" x="198.27" y="293.03" width=".39" height="36.03"/>
            <rect class="cls-31" x="198.66" y="293.03" width=".39" height="36.03"/>
            <rect class="cls-33" x="199.05" y="293.03" width=".39" height="36.03"/>
            <rect class="cls-18" x="199.43" y="293.03" width=".39" height="36.03"/>
            <rect class="cls-17" x="199.82" y="293.03" width=".39" height="36.03"/>
            <rect class="cls-15" x="200.21" y="293.03" width=".39" height="36.03"/>
            <rect class="cls-13" x="200.6" y="293.03" width=".39" height="36.03"/>
            <rect class="cls-3" x="200.99" y="293.03" width=".39" height="36.03"/>
            <rect class="cls-5" x="201.38" y="293.03" width=".39" height="36.03"/>
            <rect class="cls-22" x="201.77" y="293.03" width=".39" height="36.03"/>
            <rect class="cls-6" x="202.15" y="293.03" width=".39" height="36.03"/>
            <rect class="cls-14" x="202.54" y="293.03" width=".39" height="36.03"/>
            <rect class="cls-14" x="202.93" y="293.03" width=".39" height="36.03"/>
            <rect class="cls-21" x="203.32" y="293.03" width=".39" height="36.03"/>
            <rect class="cls-8" x="203.71" y="293.03" width=".39" height="36.03"/>
            <rect class="cls-7" x="204.1" y="293.03" width=".39" height="36.03"/>
            <rect class="cls-12" x="204.49" y="293.03" width=".39" height="36.03"/>
            <rect class="cls-58" x="204.87" y="293.03" width=".39" height="36.03"/>
            <rect class="cls-66" x="205.26" y="293.03" width=".39" height="36.03"/>
            <rect class="cls-68" x="205.65" y="293.03" width=".39" height="36.03"/>
            <rect class="cls-64" x="206.04" y="293.03" width=".39" height="36.03"/>
            <rect class="cls-56" x="206.43" y="293.03" width=".39" height="36.03"/>
            <rect class="cls-57" x="206.82" y="293.03" width=".39" height="36.03"/>
            <rect class="cls-54" x="207.21" y="293.03" width=".39" height="36.03"/>
            <rect class="cls-50" x="207.6" y="293.03" width=".39" height="36.03"/>
            <rect class="cls-47" x="207.98" y="293.03" width=".39" height="36.03"/>
            <rect class="cls-47" x="208.37" y="293.03" width=".39" height="36.03"/>
            <rect class="cls-42" x="208.76" y="293.03" width=".39" height="36.03"/>
            <rect class="cls-43" x="209.15" y="293.03" width=".39" height="36.03"/>
            <rect class="cls-35" x="209.54" y="293.03" width=".39" height="36.03"/>
            <rect class="cls-35" x="209.93" y="293.03" width=".39" height="36.03"/>
            <rect class="cls-55" x="210.32" y="293.03" width=".39" height="36.03"/>
            <rect class="cls-38" x="210.7" y="293.03" width=".39" height="36.03"/>
            <rect class="cls-39" x="211.09" y="293.03" width=".39" height="36.03"/>
            <rect class="cls-84" x="211.48" y="293.03" width=".39" height="36.03"/>
            <rect class="cls-85" x="211.87" y="293.03" width=".39" height="36.03"/>
            <rect class="cls-36" x="212.26" y="293.03" width=".39" height="36.03"/>
            <rect class="cls-34" x="212.65" y="293.03" width=".39" height="36.03"/>
            <rect class="cls-86" x="213.04" y="293.03" width=".39" height="36.03"/>
            <rect class="cls-37" x="213.43" y="293.03" width=".39" height="36.03"/>
            <rect class="cls-25" x="213.81" y="293.03" width=".39" height="36.03"/>
            <rect class="cls-24" x="214.2" y="293.03" width=".39" height="36.03"/>
            <rect class="cls-26" x="214.59" y="293.03" width=".39" height="36.03"/>
            <rect class="cls-26" x="214.98" y="293.03" width=".39" height="36.03"/>
            <rect class="cls-16" x="215.37" y="293.03" width=".39" height="36.03"/>
            <rect class="cls-80" x="215.76" y="293.03" width=".39" height="36.03"/>
            <rect class="cls-80" x="216.15" y="293.03" width=".39" height="36.03"/>
            <rect class="cls-73" x="216.53" y="293.03" width=".39" height="36.03"/>
            <rect class="cls-73" x="216.92" y="293.03" width=".39" height="36.03"/>
            <rect class="cls-74" x="217.31" y="293.03" width=".39" height="36.03"/>
            <rect class="cls-71" x="217.7" y="293.03" width=".39" height="36.03"/>
            <rect class="cls-72" x="218.09" y="293.03" width=".39" height="36.03"/>
            <rect class="cls-75" x="218.48" y="293.03" width=".39" height="36.03"/>
            <rect class="cls-76" x="218.87" y="293.03" width=".39" height="36.03"/>
            <rect class="cls-62" x="219.25" y="293.03" width=".39" height="36.03"/>
            <rect class="cls-78" x="219.64" y="293.03" width=".39" height="36.03"/>
            <rect class="cls-77" x="220.03" y="293.03" width=".39" height="36.03"/>
            <rect class="cls-48" x="220.42" y="293.03" width=".39" height="36.03"/>
            <rect class="cls-49" x="220.81" y="293.03" width=".39" height="36.03"/>
            <rect class="cls-52" x="221.2" y="293.03" width=".39" height="36.03"/>
            <rect class="cls-67" x="221.59" y="293.03" width=".39" height="36.03"/>
            <rect class="cls-67" x="221.98" y="293.03" width=".39" height="36.03"/>
            <rect class="cls-79" x="222.36" y="293.03" width=".39" height="36.03"/>
            <rect class="cls-81" x="222.75" y="293.03" width=".39" height="36.03"/>
            <rect class="cls-81" x="223.14" y="293.03" width=".39" height="36.03"/>
            <rect class="cls-59" x="223.53" y="293.03" width=".39" height="36.03"/>
            <rect class="cls-59" x="223.92" y="293.03" width=".39" height="36.03"/>
            <rect class="cls-82" x="224.31" y="293.03" width=".39" height="36.03"/>
            <rect class="cls-60" x="224.7" y="293.03" width=".39" height="36.03"/>
            <rect class="cls-63" x="225.08" y="293.03" width=".39" height="36.03"/>
            <rect class="cls-61" x="225.47" y="293.03" width=".39" height="36.03"/>
            <rect class="cls-53" x="225.86" y="293.03" width=".39" height="36.03"/>
            <rect class="cls-51" x="226.25" y="293.03" width=".39" height="36.03"/>
            <rect class="cls-65" x="226.64" y="293.03" width=".39" height="36.03"/>
            <rect class="cls-70" x="227.03" y="293.03" width=".39" height="36.03"/>
            <rect class="cls-69" x="227.42" y="293.03" width=".39" height="36.03"/>
            <rect class="cls-92" x="227.81" y="293.03" width=".39" height="36.03"/>
            <rect class="cls-92" x="228.19" y="293.03" width=".39" height="36.03"/>
            <rect class="cls-95" x="228.58" y="293.03" width=".39" height="36.03"/>
            <rect class="cls-95" x="228.97" y="293.03" width=".39" height="36.03"/>
            <rect class="cls-94" x="229.36" y="293.03" width=".39" height="36.03"/>
          </g>
        </g>
        <path class="cls-89" d="m115.24,1.56s.06.02.06.02c.04,0,.04-.02.04-.02h-.1Z"/>
        <g>
          <path class="cls-83" d="m311.13,163l-34.7-60.12c-.59-1-1.18-1.99-1.86-2.92-.39-.56-.81-1.15-1.26-1.7-.38-.54-.83-1.05-1.28-1.56-.26-.35-.54-.67-.85-.99-.42-.52-.87-1-1.34-1.44-.02-.06-.07-.1-.12-.12-1.16-1.16-2.38-2.25-3.66-3.25-.43-.35-.92-.71-1.4-1.04-2.69-1.99-5.6-3.6-8.67-4.81-.67-.29-1.36-.54-2.01-.77-1.79-.67-3.65-1.16-5.54-1.54-2.69-.55-5.43-.83-8.25-.83h-71.92c-8.35,0-16.39,2.82-22.83,7.74-2.39,1.86-5.68.81-6.74-1.73-.2-.5-.33-1.09-.33-1.68V10.42c0-.33-.02-.61-.1-.89-.05-.31-.12-.55-.26-.81-.05-.2-.15-.35-.24-.51-.1-.2-.23-.39-.39-.55-.1-.16-.22-.28-.34-.42-.13-.09-.26-.22-.39-.32-.13-.12-.29-.22-.45-.29-.04-.02-.06-.02-.1-.02v-.04c-.12-.07-.26-.12-.42-.2-.26-.12-.51-.18-.79-.26-.29-.05-.61-.1-.9-.1h-44.72c-2.43,0-4.39,1.97-4.39,4.39v271.16c0,1.98,1.29,3.6,3.08,4.19.1.02.16.02.26.07.07.02.13.02.2.02.28.05.59.1.87.1h44.72c.48,0,.96-.07,1.42-.26,1.73-.57,2.97-2.21,2.97-4.13,0-.33.04-.63.1-.94.04-.22.11-.45.18-.63.66-1.73,2.32-2.82,4.11-2.82.93,0,1.89.33,2.67.96,3.94,3,8.45,5.21,13.29,6.49.1.04.22.06.35.09.73.17,1.44.33,2.17.49,1.28.27,2.59.41,3.91.55.12,0,.22.02.35.02.28,0,.6.05.88.05.61.05,1.26.05,1.87.05h71.92c7.38,0,14.5-1.92,20.7-5.5t.06-.02c6.34-3.58,11.74-8.87,15.53-15.43l34.67-60.12c7.49-12.91,7.49-28.88,0-41.82Zm-47.65,30.04l-.48.94-20.04,34.68c-3.2,5.57-8.86,9.22-15.14,9.91-.77.13-1.53.16-2.31.16h-40.05c-5.44,0-10.56-2.2-14.31-6.01-.18-.16-.35-.35-.51-.55-.45-.49-.85-.96-1.25-1.46-.51-.63-.96-1.34-1.4-2.05l-1.76-3.08-18.24-31.6c-3.59-6.21-3.59-13.93,0-20.13l3.67-6.41,16.32-28.28c.44-.71.89-1.4,1.4-2.04,3.77-5.03,9.7-8.03,16.06-8.03h40.05c1.42,0,2.82.15,4.16.45.22.04.43.09.63.13,1.15.28,2.25.65,3.31,1.11.02.02.06.02.06.02,3.84,1.73,7.13,4.61,9.28,8.35l18.69,32.36,1.36,2.33c3.38,5.92,3.58,13.15.48,19.19Z"/>
          <g class="cls-99">
            <rect class="cls-96" x="171.16" y="129.09" width=".87" height="109.64"/>
            <rect class="cls-93" x="172.03" y="129.09" width=".87" height="109.64"/>
            <rect class="cls-93" x="172.9" y="129.09" width=".87" height="109.64"/>
            <rect class="cls-87" x="173.76" y="129.09" width=".87" height="109.64"/>
            <rect class="cls-87" x="174.63" y="129.09" width=".87" height="109.64"/>
            <rect class="cls-30" x="175.49" y="129.09" width=".87" height="109.64"/>
            <rect class="cls-29" x="176.36" y="129.09" width=".87" height="109.64"/>
            <rect class="cls-4" x="177.22" y="129.09" width=".87" height="109.64"/>
            <rect class="cls-9" x="178.09" y="129.09" width=".87" height="109.64"/>
            <rect class="cls-10" x="178.96" y="129.09" width=".87" height="109.64"/>
            <rect class="cls-11" x="179.82" y="129.09" width=".87" height="109.64"/>
            <rect class="cls-27" x="180.69" y="129.09" width=".87" height="109.64"/>
            <rect class="cls-20" x="181.55" y="129.09" width=".87" height="109.64"/>
            <rect class="cls-28" x="182.42" y="129.09" width=".87" height="109.64"/>
            <rect class="cls-40" x="183.28" y="129.09" width=".87" height="109.64"/>
            <rect class="cls-41" x="184.15" y="129.09" width=".87" height="109.64"/>
            <rect class="cls-44" x="185.01" y="129.09" width=".87" height="109.64"/>
            <rect class="cls-46" x="185.88" y="129.09" width=".87" height="109.64"/>
            <rect class="cls-23" x="186.75" y="129.09" width=".87" height="109.64"/>
            <rect class="cls-45" x="187.61" y="129.09" width=".87" height="109.64"/>
            <rect class="cls-19" x="188.48" y="129.09" width=".87" height="109.64"/>
            <rect class="cls-32" x="189.34" y="129.09" width=".87" height="109.64"/>
            <rect class="cls-31" x="190.21" y="129.09" width=".87" height="109.64"/>
            <rect class="cls-33" x="191.07" y="129.09" width=".87" height="109.64"/>
            <rect class="cls-18" x="191.94" y="129.09" width=".87" height="109.64"/>
            <rect class="cls-17" x="192.81" y="129.09" width=".87" height="109.64"/>
            <rect class="cls-15" x="193.67" y="129.09" width=".87" height="109.64"/>
            <rect class="cls-13" x="194.54" y="129.09" width=".87" height="109.64"/>
            <rect class="cls-3" x="195.4" y="129.09" width=".87" height="109.64"/>
            <rect class="cls-5" x="196.27" y="129.09" width=".87" height="109.64"/>
            <rect class="cls-22" x="197.13" y="129.09" width=".87" height="109.64"/>
            <rect class="cls-6" x="198" y="129.09" width=".87" height="109.64"/>
            <rect class="cls-14" x="198.86" y="129.09" width=".87" height="109.64"/>
            <rect class="cls-14" x="199.73" y="129.09" width=".87" height="109.64"/>
            <rect class="cls-21" x="200.6" y="129.09" width=".87" height="109.64"/>
            <rect class="cls-8" x="201.46" y="129.09" width=".87" height="109.64"/>
            <rect class="cls-7" x="202.33" y="129.09" width=".87" height="109.64"/>
            <rect class="cls-12" x="203.19" y="129.09" width=".87" height="109.64"/>
            <rect class="cls-58" x="204.06" y="129.09" width=".87" height="109.64"/>
            <rect class="cls-66" x="204.92" y="129.09" width=".87" height="109.64"/>
            <rect class="cls-68" x="205.79" y="129.09" width=".87" height="109.64"/>
            <rect class="cls-64" x="206.66" y="129.09" width=".87" height="109.64"/>
            <rect class="cls-56" x="207.52" y="129.09" width=".87" height="109.64"/>
            <rect class="cls-57" x="208.39" y="129.09" width=".87" height="109.64"/>
            <rect class="cls-54" x="209.25" y="129.09" width=".87" height="109.64"/>
            <rect class="cls-50" x="210.12" y="129.09" width=".87" height="109.64"/>
            <rect class="cls-47" x="210.98" y="129.09" width=".87" height="109.64"/>
            <rect class="cls-47" x="211.85" y="129.09" width=".87" height="109.64"/>
            <rect class="cls-42" x="212.71" y="129.09" width=".87" height="109.64"/>
            <rect class="cls-43" x="213.58" y="129.09" width=".87" height="109.64"/>
            <rect class="cls-35" x="214.45" y="129.09" width=".87" height="109.64"/>
            <rect class="cls-35" x="215.31" y="129.09" width=".87" height="109.64"/>
            <rect class="cls-55" x="216.18" y="129.09" width=".87" height="109.64"/>
            <rect class="cls-38" x="217.04" y="129.09" width=".87" height="109.64"/>
            <rect class="cls-39" x="217.91" y="129.09" width=".87" height="109.64"/>
            <rect class="cls-84" x="218.77" y="129.09" width=".87" height="109.64"/>
            <rect class="cls-85" x="219.64" y="129.09" width=".87" height="109.64"/>
            <rect class="cls-36" x="220.51" y="129.09" width=".87" height="109.64"/>
            <rect class="cls-34" x="221.37" y="129.09" width=".87" height="109.64"/>
            <rect class="cls-86" x="222.24" y="129.09" width=".87" height="109.64"/>
            <rect class="cls-37" x="223.1" y="129.09" width=".87" height="109.64"/>
            <rect class="cls-25" x="223.97" y="129.09" width=".87" height="109.64"/>
            <rect class="cls-24" x="224.83" y="129.09" width=".87" height="109.64"/>
            <rect class="cls-26" x="225.7" y="129.09" width=".87" height="109.64"/>
            <rect class="cls-26" x="226.56" y="129.09" width=".87" height="109.64"/>
            <rect class="cls-16" x="227.43" y="129.09" width=".87" height="109.64"/>
            <rect class="cls-80" x="228.3" y="129.09" width=".87" height="109.64"/>
            <rect class="cls-80" x="229.16" y="129.09" width=".87" height="109.64"/>
            <rect class="cls-73" x="230.03" y="129.09" width=".87" height="109.64"/>
            <rect class="cls-73" x="230.89" y="129.09" width=".87" height="109.64"/>
            <rect class="cls-74" x="231.76" y="129.09" width=".87" height="109.64"/>
            <rect class="cls-71" x="232.62" y="129.09" width=".87" height="109.64"/>
            <rect class="cls-72" x="233.49" y="129.09" width=".87" height="109.64"/>
            <rect class="cls-75" x="234.36" y="129.09" width=".87" height="109.64"/>
            <rect class="cls-76" x="235.22" y="129.09" width=".87" height="109.64"/>
            <rect class="cls-62" x="236.09" y="129.09" width=".87" height="109.64"/>
            <rect class="cls-78" x="236.95" y="129.09" width=".87" height="109.64"/>
            <rect class="cls-77" x="237.82" y="129.09" width=".87" height="109.64"/>
            <rect class="cls-48" x="238.68" y="129.09" width=".87" height="109.64"/>
            <rect class="cls-49" x="239.55" y="129.09" width=".87" height="109.64"/>
            <rect class="cls-52" x="240.42" y="129.09" width=".87" height="109.64"/>
            <rect class="cls-67" x="241.28" y="129.09" width=".87" height="109.64"/>
            <rect class="cls-67" x="242.15" y="129.09" width=".87" height="109.64"/>
            <rect class="cls-79" x="243.01" y="129.09" width=".87" height="109.64"/>
            <rect class="cls-81" x="243.88" y="129.09" width=".87" height="109.64"/>
            <rect class="cls-81" x="244.74" y="129.09" width=".87" height="109.64"/>
            <rect class="cls-59" x="245.61" y="129.09" width=".87" height="109.64"/>
            <rect class="cls-59" x="246.47" y="129.09" width=".87" height="109.64"/>
            <rect class="cls-82" x="247.34" y="129.09" width=".87" height="109.64"/>
            <rect class="cls-60" x="248.21" y="129.09" width=".87" height="109.64"/>
            <rect class="cls-63" x="249.07" y="129.09" width=".87" height="109.64"/>
            <rect class="cls-61" x="249.94" y="129.09" width=".87" height="109.64"/>
            <rect class="cls-53" x="250.8" y="129.09" width=".87" height="109.64"/>
            <rect class="cls-51" x="251.67" y="129.09" width=".87" height="109.64"/>
            <rect class="cls-65" x="252.53" y="129.09" width=".87" height="109.64"/>
            <rect class="cls-70" x="253.4" y="129.09" width=".87" height="109.64"/>
            <rect class="cls-69" x="254.27" y="129.09" width=".87" height="109.64"/>
            <rect class="cls-92" x="255.13" y="129.09" width=".87" height="109.64"/>
            <rect class="cls-92" x="256" y="129.09" width=".87" height="109.64"/>
            <rect class="cls-95" x="256.86" y="129.09" width=".87" height="109.64"/>
            <rect class="cls-95" x="257.73" y="129.09" width=".87" height="109.64"/>
            <rect class="cls-94" x="258.59" y="129.09" width=".87" height="109.64"/>
            <rect class="cls-94" x="259.46" y="129.09" width=".91" height="109.64"/>
          </g>
          <path class="cls-83" d="m131.8,315.04c0,5.54-2.78,10.4-7.07,13.25-1.28.86-2.66,1.57-4.16,2.02-1.5.48-3.1.74-4.77.74-.74,0-1.44-.06-2.14-.16-.03-.03-.1-.03-.13-.03-.13,0-.22-.03-.32-.06-.13-.03-.26-.03-.35-.06-.13-.03-.29-.03-.45-.06-.06-.03-.16-.06-.26-.06-.35-.06-.67-.13-1.02-.26-6.56-1.98-11.33-8.09-11.33-15.29,0-8.83,7.17-16,16-16,.99,0,1.95.1,2.88.26.1.03.16.03.26.06.22.03.45.1.67.16.67.16,1.34.35,2.02.64.38.13.74.29,1.09.45.29.13.58.29.83.45.42.22.8.45,1.18.74.45.29.83.58,1.25.93.38.32.77.67,1.12,1.02.35.35.7.7,1.02,1.09v.03c.58.67,1.09,1.41,1.54,2.18.26.42.48.86.7,1.34.13.29.26.61.38.93.13.32.22.64.32.96.13.42.26.8.32,1.22.16.64.26,1.28.32,1.92.06.54.1,1.09.1,1.63Z"/>
          <path class="cls-83" d="m250.97,315.04c0,5.54-2.82,10.4-7.04,13.25-1.28.86-2.69,1.57-4.19,2.02-1.5.48-3.1.74-4.77.74-.99,0-1.95-.1-2.91-.29-.1,0-.19,0-.32-.03-.1-.03-.19-.06-.32-.1-.1,0-.22-.06-.32-.1-.29-.03-.58-.13-.9-.22-6.5-2.02-11.2-8.09-11.2-15.26,0-8.83,7.13-16,15.97-16,.99,0,1.95.1,2.88.26.1.03.16.03.26.06.22.03.45.1.64.16.7.13,1.38.35,2.05.64.35.13.74.29,1.09.45.74.35,1.47.77,2.14,1.28.38.22.77.51,1.12.83.35.29.7.58,1.02.9.45.45.86.9,1.28,1.41.29.35.54.7.8,1.09.61.93,1.15,1.92,1.57,2.98.13.29.22.58.32.86.38,1.12.64,2.27.74,3.46.06.54.1,1.09.1,1.63Z"/>
        </g>
      </g>
      <g class="cls-98">
        <rect class="cls-51" x="342.91" y="401.38" width="3.49" height="16.11"/>
        <rect class="cls-65" x="346.41" y="401.38" width="3.69" height="16.11"/>
        <rect class="cls-70" x="350.09" y="401.38" width="3.69" height="16.11"/>
        <rect class="cls-69" x="353.78" y="401.38" width="3.03" height="16.11"/>
        <rect class="cls-59" x="324.18" y="384.93" width=".12" height="71.3"/>
        <rect class="cls-82" x="324.3" y="384.93" width="3.69" height="71.3"/>
        <rect class="cls-60" x="327.98" y="384.93" width="3.69" height="71.3"/>
        <rect class="cls-63" x="331.67" y="384.93" width="3.69" height="71.3"/>
        <rect class="cls-61" x="335.35" y="384.93" width="3.69" height="71.3"/>
        <rect class="cls-53" x="339.04" y="384.93" width="3.69" height="71.3"/>
        <rect class="cls-51" x="342.72" y="384.93" width="3.69" height="71.3"/>
        <rect class="cls-65" x="346.41" y="384.93" width="3.69" height="71.3"/>
        <rect class="cls-70" x="350.09" y="384.93" width="3.69" height="71.3"/>
        <rect class="cls-69" x="353.78" y="384.93" width="3.69" height="71.3"/>
        <rect class="cls-92" x="357.46" y="384.93" width="3.69" height="71.3"/>
        <rect class="cls-92" x="361.15" y="384.93" width="3.69" height="71.3"/>
        <rect class="cls-95" x="364.83" y="384.93" width="3.69" height="71.3"/>
        <rect class="cls-95" x="368.52" y="384.93" width="3.69" height="71.3"/>
        <rect class="cls-94" x="372.2" y="384.93" width="3.69" height="71.3"/>
        <rect class="cls-77" x="286.79" y="401.21" width=".65" height="16.45"/>
        <rect class="cls-48" x="287.45" y="401.21" width="3.69" height="16.45"/>
        <rect class="cls-49" x="291.13" y="401.21" width="3.69" height="16.45"/>
        <rect class="cls-52" x="294.82" y="401.21" width="3.69" height="16.45"/>
        <rect class="cls-67" x="298.5" y="401.21" width=".67" height="16.45"/>
        <rect class="cls-72" x="267.72" y="384.93" width="1.3" height="49"/>
        <rect class="cls-75" x="269.02" y="384.93" width="3.69" height="49"/>
        <rect class="cls-76" x="272.7" y="384.93" width="3.69" height="49"/>
        <rect class="cls-62" x="276.39" y="384.93" width="3.69" height="49"/>
        <rect class="cls-78" x="280.07" y="384.93" width="3.69" height="49"/>
        <rect class="cls-77" x="283.76" y="384.93" width="3.69" height="49"/>
        <rect class="cls-48" x="287.45" y="384.93" width="3.69" height="49"/>
        <rect class="cls-49" x="291.13" y="384.93" width="3.69" height="49"/>
        <rect class="cls-52" x="294.82" y="384.93" width="3.69" height="49"/>
        <rect class="cls-67" x="298.5" y="384.93" width="3.69" height="49"/>
        <rect class="cls-67" x="302.19" y="384.93" width="3.69" height="49"/>
        <rect class="cls-79" x="305.87" y="384.93" width="3.69" height="49"/>
        <rect class="cls-81" x="309.56" y="384.93" width="3.69" height="49"/>
        <rect class="cls-81" x="313.24" y="384.93" width="3.69" height="49"/>
        <rect class="cls-59" x="316.93" y="384.93" width="1.32" height="49"/>
        <rect class="cls-36" x="211.18" y="370.61" width="2.57" height="62.73"/>
        <rect class="cls-34" x="213.74" y="370.61" width="3.69" height="62.73"/>
        <rect class="cls-86" x="217.43" y="370.61" width="3.69" height="62.73"/>
        <rect class="cls-37" x="221.11" y="370.61" width="3.69" height="62.73"/>
        <rect class="cls-25" x="224.8" y="370.61" width="3.69" height="62.73"/>
        <rect class="cls-24" x="228.48" y="370.61" width="3.69" height="62.73"/>
        <rect class="cls-26" x="232.17" y="370.61" width="3.69" height="62.73"/>
        <rect class="cls-26" x="235.85" y="370.61" width="3.69" height="62.73"/>
        <rect class="cls-16" x="239.54" y="370.61" width="3.69" height="62.73"/>
        <rect class="cls-80" x="243.22" y="370.61" width="3.69" height="62.73"/>
        <rect class="cls-80" x="246.91" y="370.61" width="3.69" height="62.73"/>
        <rect class="cls-73" x="250.59" y="370.61" width="3.69" height="62.73"/>
        <rect class="cls-73" x="254.28" y="370.61" width="3.69" height="62.73"/>
        <rect class="cls-74" x="257.96" y="370.61" width="3.69" height="62.73"/>
        <rect class="cls-71" x="261.65" y="370.61" width=".48" height="62.73"/>
        <rect class="cls-57" x="159.63" y="384.93" width="2.52" height="49"/>
        <rect class="cls-54" x="162.15" y="384.93" width="3.69" height="49"/>
        <rect class="cls-50" x="165.83" y="384.93" width="3.69" height="49"/>
        <rect class="cls-47" x="169.52" y="384.93" width="3.69" height="49"/>
        <rect class="cls-47" x="173.2" y="384.93" width="3.69" height="49"/>
        <rect class="cls-42" x="176.89" y="384.93" width="3.69" height="49"/>
        <rect class="cls-43" x="180.57" y="384.93" width="3.69" height="49"/>
        <rect class="cls-35" x="184.26" y="384.93" width="3.69" height="49"/>
        <rect class="cls-35" x="187.94" y="384.93" width="3.69" height="49"/>
        <rect class="cls-55" x="191.63" y="384.93" width="3.69" height="49"/>
        <rect class="cls-38" x="195.32" y="384.93" width="3.69" height="49"/>
        <rect class="cls-39" x="199" y="384.93" width="3.69" height="49"/>
        <rect class="cls-84" x="202.69" y="384.93" width="1.11" height="49"/>
        <rect class="cls-21" x="125.89" y="399.68" width="3.09" height="4.83"/>
        <rect class="cls-8" x="128.98" y="399.68" width="3.69" height="4.83"/>
        <rect class="cls-7" x="132.67" y="399.68" width="3.69" height="4.83"/>
        <rect class="cls-12" x="136.35" y="399.68" width=".73" height="4.83"/>
        <rect class="cls-5" x="107.32" y="384.93" width="3.23" height="49"/>
        <rect class="cls-22" x="110.56" y="384.93" width="3.69" height="49"/>
        <rect class="cls-6" x="114.24" y="384.93" width="3.69" height="49"/>
        <rect class="cls-14" x="117.93" y="384.93" width="3.69" height="49"/>
        <rect class="cls-14" x="121.61" y="384.93" width="3.69" height="49"/>
        <rect class="cls-21" x="125.3" y="384.93" width="3.69" height="49"/>
        <rect class="cls-8" x="128.98" y="384.93" width="3.69" height="49"/>
        <rect class="cls-7" x="132.67" y="384.93" width="3.69" height="49"/>
        <rect class="cls-12" x="136.35" y="384.93" width="3.69" height="49"/>
        <rect class="cls-58" x="140.04" y="384.93" width="3.69" height="49"/>
        <rect class="cls-66" x="143.72" y="384.93" width="3.69" height="49"/>
        <rect class="cls-68" x="147.41" y="384.93" width="3.69" height="49"/>
        <rect class="cls-64" x="151.09" y="384.93" width="3.69" height="49"/>
        <rect class="cls-56" x="154.78" y="384.93" width="1.38" height="49"/>
        <rect class="cls-45" x="73.67" y="399.68" width=".04" height="4.83"/>
        <rect class="cls-19" x="73.7" y="399.68" width="3.69" height="4.83"/>
        <rect class="cls-32" x="77.39" y="399.68" width="3.69" height="4.83"/>
        <rect class="cls-31" x="81.07" y="399.68" width="3.69" height="4.83"/>
        <rect class="cls-33" x="84.76" y="399.68" width=".1" height="4.83"/>
        <rect class="cls-40" x="55.1" y="384.93" width=".18" height="49"/>
        <rect class="cls-41" x="55.28" y="384.93" width="3.69" height="49"/>
        <rect class="cls-44" x="58.96" y="384.93" width="3.69" height="49"/>
        <rect class="cls-46" x="62.65" y="384.93" width="3.69" height="49"/>
        <rect class="cls-23" x="66.33" y="384.93" width="3.69" height="49"/>
        <rect class="cls-45" x="70.02" y="384.93" width="3.69" height="49"/>
        <rect class="cls-19" x="73.7" y="384.93" width="3.69" height="49"/>
        <rect class="cls-32" x="77.39" y="384.93" width="3.69" height="49"/>
        <rect class="cls-31" x="81.07" y="384.93" width="3.69" height="49"/>
        <rect class="cls-33" x="84.76" y="384.93" width="3.69" height="49"/>
        <rect class="cls-18" x="88.44" y="384.93" width="3.69" height="49"/>
        <rect class="cls-17" x="92.13" y="384.93" width="3.69" height="49"/>
        <rect class="cls-15" x="95.82" y="384.93" width="3.69" height="49"/>
        <rect class="cls-13" x="99.5" y="384.93" width="3.69" height="49"/>
        <rect class="cls-3" x="103.19" y="384.93" width=".75" height="49"/>
        <rect class="cls-30" x="18.74" y="401.38" width="3.37" height="16.11"/>
        <rect class="cls-29" x="22.11" y="401.38" width="3.69" height="16.11"/>
        <rect class="cls-4" x="25.8" y="401.38" width="3.69" height="16.11"/>
        <rect class="cls-9" x="29.48" y="401.38" width="3.15" height="16.11"/>
        <rect class="cls-96" x="0" y="370.61" width="3.69" height="63.33"/>
        <rect class="cls-93" x="3.69" y="370.61" width="3.69" height="63.33"/>
        <rect class="cls-93" x="7.37" y="370.61" width="3.69" height="63.33"/>
        <rect class="cls-87" x="11.06" y="370.61" width="3.69" height="63.33"/>
        <rect class="cls-87" x="14.74" y="370.61" width="3.69" height="63.33"/>
        <rect class="cls-30" x="18.43" y="370.61" width="3.69" height="63.33"/>
        <rect class="cls-29" x="22.11" y="370.61" width="3.69" height="63.33"/>
        <rect class="cls-4" x="25.8" y="370.61" width="3.69" height="63.33"/>
        <rect class="cls-9" x="29.48" y="370.61" width="3.69" height="63.33"/>
        <rect class="cls-10" x="33.17" y="370.61" width="3.69" height="63.33"/>
        <rect class="cls-11" x="36.85" y="370.61" width="3.69" height="63.33"/>
        <rect class="cls-27" x="40.54" y="370.61" width="3.69" height="63.33"/>
        <rect class="cls-20" x="44.22" y="370.61" width="3.69" height="63.33"/>
        <rect class="cls-28" x="47.91" y="370.61" width="3.69" height="63.33"/>
        <rect class="cls-40" x="51.59" y="370.61" width=".12" height="63.33"/>
      </g>
      <path class="cls-88" d="m368.08,345.19c.06,0,.12-.01.18-.02-.06,0-.12.01-.18.02Z"/>
      <path class="cls-90" d="m365.38,340.5c0,.06,0,.12,0,.18,0-.06,0-.12,0-.18Z"/>
      <path class="cls-91" d="m366.37,345.65c-.08.11-.16.21-.17.32,0-.11.09-.21.17-.32Z"/>
      <path class="cls-91" d="m375.02,370.42c-.56-.66-1.1-1.33-1.59-2.02-1.57-2.17-2.78-4.43-3.72-6.67-.27-.61-.49-1.21-.72-1.82-.13-.35-.25-.69-.37-1.04-.47-1.4-.83-2.75-1.13-4.02-1.02-4.5-1.1-8.05-1.1-9.1-1.33.18-2.67.52-3.99,1.02-.37.14-.72.28-1.07.44-.01,0-.03.01-.04.01-.78.39-1.13.66-1.13.66v.31c0,1.06.04,2.1.13,3.1.1,1.16.25,2.3.45,3.4.07.42.16.85.25,1.27.1.48.21.94.32,1.41.37,1.45.8,2.85,1.28,4.16.18.49.37.97.56,1.44,1.48,3.62,3.3,6.63,4.88,8.84.14.2.28.39.41.56.14.2.27.37.39.54.13.17.25.34.38.49s.24.31.35.45c.24.3.47.56.66.8.14.16.25.31.38.44.35.39.63.71.82.9.04.06.1.1.14.14.11.13.18.2.18.2.03,0,.09-.02.24-.06.16-.04.19-.06.41-.15.06-.03.25-.08.48-.15.97-.28,1.76-.67,2.59-1.14.28-.16.54-.31.78-.45.96-.61,1.59-1.1,1.59-1.1-1.03-.92-1.97-1.88-2.83-2.88Z"/>
      <ellipse class="cls-91" cx="374.47" cy="356.66" rx="1.36" ry="2.09"/>
      <ellipse class="cls-91" cx="382.47" cy="356.56" rx="1.36" ry="2.09"/>
      <path class="cls-91" d="m362.62,349.16s2.16-2.69,2.52-6.6c.37-3.92-1.33-6.44-2.32-7.87-1-1.43-2.72-2.32-2.72-2.32,0,0-1.56-1.03-3.68-.5s-2.44,4.23-2.42,5.54c.02,1.39.33,8.66,6.27,12.94,0,0,1.06,1.43,2.36-1.19Z"/>
      <path class="cls-91" d="m357.61,349.23s-2.09-4.71-6.07-5.38-6.14,1.14-6.41,1.49-1.39,1.56.13,3.58c1.53,2.02,6.31,3.25,6.31,3.25,0,0,3.36.78,5.71-.33l.9-.43s0-.88-.56-2.19Z"/>
      <path class="cls-91" d="m378.54,362.93c1.72-.09,2.61-1.23,2.73-2.8,0,0-.02-.28-.42-.29-.4,0-.44.29-.44.29-.11,1.16-.85,2.12-1.95,2.12-1.11,0-1.84-.96-1.95-2.12,0,0-.04-.29-.44-.29-.41,0-.42.29-.42.29.12,1.57,1.01,2.71,2.76,2.8h.14Z"/>
      <path class="cls-91" d="m377.3,340.85c-.49,0-.9.31-1.06.74h0s-.15.62-.33.76-.56.45-1.43,1.96c-.87,1.51-.65,5.37-.65,5.37,0,0,0,.23.14.33.12.08.42.15.3-.5-.08-.42-.03-1.58.02-2.33.04-.6.13-1.19.31-1.76.21-.68.38-1.41,1.1-2.16,0,0,.39-.43.65-.48.21.22.64.36.97.36.63,0,1.14-.51,1.14-1.14s-.51-1.14-1.14-1.14Z"/>
    </g>
  </g>
</svg>