<?xml version="1.0" encoding="UTF-8"?>
<svg id="Camada_2" data-name="Camada 2" xmlns="http://www.w3.org/2000/svg" viewBox="0 0 151.67 161.7">
  <defs>
    <style>
      .cls-1 {
        fill: #dadd40;
      }

      .cls-1, .cls-2, .cls-3, .cls-4 {
        stroke-width: 0px;
      }

      .cls-2 {
        fill: #fff1b8;
      }

      .cls-3 {
        fill: #fbf8f5;
      }

      .cls-4 {
        fill: #00b3dd;
      }
    </style>
  </defs>
  <g id="Camada_1-2" data-name="Camada 1">
    <g>
      <path class="cls-4" d="m147.62,37.94c-1.59,0-2.94.94-3.6,2.28-.57.65-.6,1.14-2.06,1.41-.99.19-7.9,2.42-12.38,9.43-4.48,7.02-5.84,10.02-5.95,11.62-.12,1.59,1.05.89,1.53-.12.48-1,2.14-4.97,3.94-7.49,2.4-3.35,2.96-6.88,11.95-11.55,0,0,2.06-1.02,2.71.02.58,1.53,2.13,2.5,3.86,2.5,2.24,0,4.05-1.81,4.05-4.05s-1.81-4.05-4.05-4.05Z"/>
      <path class="cls-1" d="m96.94,158.59c-9.57,3.41-9.62,2.76-16.69,3.11h-4.11c-.85,0-1.5-.05-2.15-.1-.05,0-.1,0-.2-.05,0,0-.05.05-.1,0-.25,0-.6-.05-.95-.1l-1.2-1.4c-27.97-31.53-35.09-60.2-36.74-75.53-.05-.3-.1-.6-.1-.9-.05-.7-.1-1.35-.15-2.01-.3-3.91-.2-6.62-.1-7.92,1.2-1.45,2.51-2.86,3.86-4.21.4-.4.8-.75,1.2-1.05,9.27-7.77,16.19-10.98,16.19-10.98v1.1c0,3.76.15,7.47.45,11.03.35,4.11.9,8.17,1.6,12.08.25,1.5.55,3.01.9,4.51.3,1.7.7,3.36,1.15,5.01,1.3,5.16,2.86,10.12,4.56,14.79.65,1.75,1.3,3.46,2,5.11,5.26,12.88,11.73,23.56,17.34,31.43.5.7,1,1.4,1.45,2.01.5.7.95,1.3,1.4,1.9.45.6.9,1.2,1.35,1.75.45.55.85,1.1,1.25,1.6.85,1.05,1.65,2,2.36,2.86.5.55.9,1.1,1.35,1.55,1.2,1.4,2.21,2.46,2.91,3.21.15.2.35.35.5.5.4.45.65.7.65.7Z"/>
      <path class="cls-4" d="m72.73,161.45c-.3,0-.55-.05-.8-.05h-.2c-4.61-.15-14.54-1.15-22.76-5.96-1.7-1-3.31-2.01-4.76-3.06-.35-.25-.7-.5-1.05-.7-6.97-4.51-12.73-10.53-16.69-17.79-.4-.15-.9,0-1.8,0-.55,0-17.14,3.86-10.68-3.46,4.46-5.11,6.62-7.72,7.62-8.97.55-.7.7-.95.7-.95-2.26-11.78-.75-17.04-.75-17.04.7-8.97,4.51-17.34,7.82-23.01.1-.15.2-.3.25-.4,1.45-2.21,3.06-4.31,4.81-6.37-.1,1.3-.2,4.01.1,7.92.05.65.1,1.3.15,2.01,0,.3.05.6.1.9,1.65,15.34,8.77,44.01,36.74,75.53l1.2,1.4Z"/>
      <path class="cls-1" d="m144.8,102.32c-.68,19.44-12.64,38.34-31.87,49.35,3.41-2.16,5.66-3.91,5.66-3.91-3.66-3.26-7.02-6.67-10.07-10.22-2.01-2.36-3.91-4.71-5.66-7.17-5.56-7.72-9.87-15.74-13.23-23.71-.9-2.16-1.75-4.31-2.56-6.47-.45-1.25-.9-2.46-1.3-3.71-1.65-4.96-2.96-9.77-4.01-14.29-3.61-15.99-3.91-28.62-3.91-32.33,28.17-4.26,55.18,9.12,64.16,33.58,1.1,2.96,1.85,5.96,2.36,9.02.2,1.5.35,2.96.4,4.31.05,1.05.1,2.11.1,3.06,0,.89-.03,1.7-.06,2.47Z"/>
      <path class="cls-2" d="m83.88,47.89c.21-.03.43-.05.64-.08-.21.03-.43.05-.64.08Z"/>
      <path class="cls-3" d="m74.27,31.19c0,.21.01.43.02.64,0-.21-.01-.43-.02-.64Z"/>
      <path class="cls-4" d="m77.79,49.51c-.28.37-.58.75-.59,1.13,0-.38.31-.75.59-1.13Z"/>
      <path class="cls-4" d="m108.52,137.54c-2.01-2.36-3.91-4.71-5.66-7.17-5.56-7.72-9.87-15.74-13.23-23.71-.95-2.16-1.75-4.31-2.56-6.47-.45-1.25-.9-2.46-1.3-3.71-1.65-4.96-2.96-9.77-4.01-14.29-3.61-15.99-3.91-28.62-3.91-32.33-4.71.65-9.47,1.85-14.19,3.61-1.3.5-2.56,1-3.81,1.55-.05,0-.1.05-.15.05-2.76,1.4-4.01,2.36-4.01,2.36v1.1c0,3.76.15,7.47.45,11.03.35,4.11.9,8.17,1.6,12.08.25,1.5.55,3.01.9,4.51.35,1.7.75,3.36,1.15,5.01,1.3,5.16,2.86,10.12,4.56,14.79.65,1.75,1.3,3.46,2,5.11,5.26,12.88,11.73,23.56,17.34,31.43.5.7,1,1.4,1.45,2.01.5.7.95,1.3,1.4,1.9.45.6.9,1.2,1.35,1.75.45.55.85,1.1,1.25,1.6.85,1.05,1.65,2,2.36,2.86.5.55.9,1.1,1.35,1.55,1.25,1.4,2.26,2.51,2.91,3.21.15.2.35.35.5.5.4.45.65.7.65.7.1,0,.32-.07.85-.2.55-.14.67-.21,1.46-.52.22-.1.91-.3,1.71-.55,3.46-1,6.25-2.39,9.21-4.04,1-.55,1.91-1.1,2.76-1.6,3.41-2.16,5.66-3.91,5.66-3.91-3.66-3.26-7.02-6.67-10.07-10.22Z"/>
      <ellipse class="cls-4" cx="106.58" cy="88.63" rx="4.83" ry="7.42"/>
      <ellipse class="cls-4" cx="135" cy="88.28" rx="4.83" ry="7.42"/>
      <path class="cls-4" d="m64.47,61.99s7.67-9.55,8.96-23.47c1.3-13.92-4.72-22.88-8.26-27.95-3.54-5.07-9.67-8.26-9.67-8.26,0,0-5.54-3.66-13.09-1.77-7.55,1.89-8.66,15.04-8.61,19.7.06,4.95,1.18,30.78,22.29,45.99,0,0,3.77,5.07,8.37-4.25Z"/>
      <path class="cls-4" d="m46.67,62.22s-7.43-16.75-21.58-19.11c-14.15-2.36-21.81,4.05-22.76,5.31-.98,1.29-4.95,5.54.47,12.74,5.43,7.19,22.41,11.56,22.41,11.56,0,0,11.96,2.77,20.28-1.18l3.18-1.53s-.01-3.14-2-7.78Z"/>
      <path class="cls-4" d="m121.05,110.92c6.11-.32,9.27-4.37,9.71-9.94,0,0-.06-1-1.5-1.02-1.41-.02-1.55,1.02-1.55,1.02-.39,4.11-3.01,7.52-6.94,7.52-3.93,0-6.55-3.41-6.94-7.52,0,0-.15-1.03-1.55-1.02-1.45.02-1.5,1.02-1.5,1.02.44,5.57,3.6,9.64,9.82,9.95h.48Z"/>
      <path class="cls-4" d="m116.61,32.46c-1.73,0-3.18,1.1-3.76,2.62h0s-.52,2.2-1.16,2.71c-.64.51-2,1.61-5.1,6.96-3.1,5.35-2.3,19.09-2.3,19.09,0,0,.02.83.48,1.16.42.3,1.5.53,1.06-1.77-.29-1.5-.11-5.61.05-8.29.13-2.13.47-4.22,1.09-6.26.74-2.41,1.34-5.01,3.89-7.68,0,0,1.38-1.53,2.3-1.71.74.8,2.26,1.27,3.44,1.27,2.24,0,4.05-1.81,4.05-4.05s-1.81-4.05-4.05-4.05Z"/>
    </g>
  </g>
</svg>