<?xml version="1.0" encoding="UTF-8"?>
<svg id="Camada_2" data-name="Camada 2" xmlns="http://www.w3.org/2000/svg" xmlns:xlink="http://www.w3.org/1999/xlink" viewBox="0 0 619.6 199.26">
  <defs>
    <style>
      .cls-1 {
        fill: url(#Gradiente_sem_nome_4);
      }

      .cls-1, .cls-2, .cls-3, .cls-4, .cls-5 {
        stroke-width: 0px;
      }

      .cls-2 {
        fill: #dadd40;
      }

      .cls-3 {
        fill: #fff1b8;
      }

      .cls-4 {
        fill: #fbf8f5;
      }

      .cls-5 {
        fill: #00b3dd;
      }
    </style>
    <linearGradient id="Gradiente_sem_nome_4" data-name="Gradiente sem nome 4" x1="0" y1="130.75" x2="601.56" y2="130.75" gradientUnits="userSpaceOnUse">
      <stop offset="0" stop-color="#67c7ea"/>
      <stop offset="1" stop-color="#0089b3"/>
    </linearGradient>
  </defs>
  <g id="Camada_1-2" data-name="Camada 1">
    <g>
      <g>
        <path class="cls-5" d="m617.77,17.09c-.72,0-1.33.42-1.62,1.03-.26.29-.27.51-.93.64-.45.08-3.56,1.09-5.58,4.25-2.02,3.16-2.63,4.51-2.68,5.23-.05.72.47.4.69-.05.22-.45.96-2.24,1.77-3.37,1.08-1.51,1.33-3.1,5.38-5.2,0,0,.93-.46,1.22,0,.26.69.96,1.12,1.74,1.12,1.01,0,1.82-.82,1.82-1.82s-.82-1.82-1.82-1.82Z"/>
        <path class="cls-2" d="m594.95,71.42c-4.31,1.53-4.33,1.24-7.52,1.4h-1.85c-.38,0-.68-.02-.97-.05-.02,0-.05,0-.09-.02,0,0-.02.02-.05,0-.11,0-.27-.02-.43-.05l-.54-.63c-12.6-14.2-15.8-27.11-16.55-34.02-.02-.14-.04-.27-.04-.41-.02-.32-.05-.61-.07-.9-.14-1.76-.09-2.98-.04-3.57.54-.65,1.13-1.29,1.74-1.9.18-.18.36-.34.54-.47,4.18-3.5,7.29-4.94,7.29-4.94v.5c0,1.69.07,3.36.2,4.97.16,1.85.41,3.68.72,5.44.11.68.25,1.35.41,2.03.14.77.32,1.51.52,2.26.59,2.32,1.29,4.56,2.05,6.66.29.79.59,1.56.9,2.3,2.37,5.8,5.28,10.61,7.81,14.15.23.32.45.63.65.9.23.32.43.59.63.86.2.27.41.54.61.79s.38.5.56.72c.38.47.75.9,1.06,1.29.23.25.41.5.61.7.54.63.99,1.11,1.31,1.44.07.09.16.16.23.23.18.2.29.32.29.32Z"/>
        <path class="cls-5" d="m584.05,72.71c-.14,0-.25-.02-.36-.02h-.09c-2.08-.07-6.55-.52-10.25-2.69-.77-.45-1.49-.9-2.14-1.38-.16-.11-.32-.23-.47-.32-3.14-2.03-5.73-4.74-7.52-8.01-.18-.07-.41,0-.81,0-.25,0-7.72,1.74-4.81-1.56,2.01-2.3,2.98-3.48,3.43-4.04.25-.32.32-.43.32-.43-1.02-5.3-.34-7.67-.34-7.67.32-4.04,2.03-7.81,3.52-10.36.05-.07.09-.14.11-.18.65-.99,1.38-1.94,2.17-2.87-.05.59-.09,1.81.04,3.57.02.29.05.59.07.9,0,.14.02.27.04.41.75,6.91,3.95,19.82,16.55,34.02l.54.63Z"/>
        <path class="cls-2" d="m616.5,46.08c-.31,8.76-5.69,17.27-14.35,22.23,1.53-.97,2.55-1.76,2.55-1.76-1.65-1.47-3.16-3-4.54-4.6-.9-1.06-1.76-2.12-2.55-3.23-2.51-3.48-4.45-7.09-5.96-10.68-.41-.97-.79-1.94-1.15-2.91-.2-.56-.41-1.11-.59-1.67-.75-2.23-1.33-4.4-1.81-6.43-1.63-7.2-1.76-12.89-1.76-14.56,12.69-1.92,24.85,4.11,28.89,15.12.5,1.33.83,2.69,1.06,4.06.09.68.16,1.33.18,1.94.02.47.05.95.05,1.38,0,.4-.01.76-.03,1.11Z"/>
        <path class="cls-3" d="m589.07,21.57c.1-.01.19-.02.29-.03-.1.01-.19.02-.29.03Z"/>
        <path class="cls-4" d="m584.74,14.05c0,.1,0,.19,0,.29,0-.1,0-.19,0-.29Z"/>
        <path class="cls-5" d="m586.33,22.3c-.12.17-.26.34-.27.51,0-.17.14-.34.27-.51Z"/>
        <path class="cls-5" d="m600.16,61.94c-.9-1.06-1.76-2.12-2.55-3.23-2.51-3.48-4.45-7.09-5.96-10.68-.43-.97-.79-1.94-1.15-2.91-.2-.56-.41-1.11-.59-1.67-.75-2.23-1.33-4.4-1.81-6.43-1.63-7.2-1.76-12.89-1.76-14.56-2.12.29-4.27.84-6.39,1.63-.59.23-1.15.45-1.72.7-.02,0-.04.02-.07.02-1.24.63-1.81,1.06-1.81,1.06v.5c0,1.69.07,3.36.2,4.97.16,1.85.41,3.68.72,5.44.11.68.25,1.35.41,2.03.16.77.34,1.51.52,2.26.59,2.32,1.29,4.56,2.05,6.66.29.79.59,1.56.9,2.3,2.37,5.8,5.28,10.61,7.81,14.15.23.32.45.63.65.9.23.32.43.59.63.86.2.27.41.54.61.79s.38.5.56.72c.38.47.75.9,1.06,1.29.23.25.41.5.61.7.56.63,1.02,1.13,1.31,1.44.07.09.16.16.23.23.18.2.29.32.29.32.05,0,.15-.03.38-.09.25-.06.3-.09.66-.23.1-.04.41-.13.77-.25,1.56-.45,2.82-1.07,4.15-1.82.45-.25.86-.5,1.24-.72,1.53-.97,2.55-1.76,2.55-1.76-1.65-1.47-3.16-3-4.54-4.6Z"/>
        <ellipse class="cls-5" cx="599.29" cy="39.91" rx="2.18" ry="3.34"/>
        <ellipse class="cls-5" cx="612.09" cy="39.75" rx="2.18" ry="3.34"/>
        <path class="cls-5" d="m580.33,27.91s3.45-4.3,4.04-10.57-2.12-10.3-3.72-12.59-4.36-3.72-4.36-3.72c0,0-2.5-1.65-5.9-.8s-3.9,6.77-3.88,8.87c.03,2.23.53,13.86,10.04,20.71,0,0,1.7,2.28,3.77-1.91Z"/>
        <path class="cls-5" d="m572.31,28.02s-3.35-7.54-9.72-8.6c-6.37-1.06-9.82,1.83-10.25,2.39-.44.58-2.23,2.5.21,5.74,2.44,3.24,10.09,5.2,10.09,5.2,0,0,5.38,1.25,9.14-.53l1.43-.69s0-1.41-.9-3.51Z"/>
        <path class="cls-5" d="m605.81,49.95c2.75-.14,4.17-1.97,4.37-4.48,0,0-.03-.45-.68-.46-.63,0-.7.46-.7.46-.18,1.85-1.36,3.39-3.13,3.39-1.77,0-2.95-1.53-3.13-3.39,0,0-.07-.47-.7-.46-.65,0-.68.46-.68.46.2,2.51,1.62,4.34,4.42,4.48h.22Z"/>
        <path class="cls-5" d="m603.81,14.62c-.78,0-1.43.49-1.69,1.18h0s-.23.99-.52,1.22-.9.72-2.3,3.13c-1.39,2.41-1.03,8.6-1.03,8.6,0,0,0,.37.22.52.19.13.68.24.48-.8-.13-.67-.05-2.53.02-3.73.06-.96.21-1.9.49-2.82.33-1.09.6-2.25,1.75-3.46,0,0,.62-.69,1.03-.77.33.36,1.02.57,1.55.57,1.01,0,1.82-.82,1.82-1.82s-.82-1.82-1.82-1.82Z"/>
      </g>
      <path class="cls-1" d="m38.32,88.22c3.57-2.04,7.84-3.05,12.82-3.05,5.97,0,11.35,1.56,16.14,4.68,4.79,3.12,8.57,7.64,11.33,13.57,2.75,5.92,4.14,12.91,4.14,20.96s-1.38,15.04-4.14,20.96c-2.76,5.92-6.54,10.45-11.33,13.57-4.8,3.12-10.17,4.68-16.14,4.68-4.98,0-9.25-1.01-12.82-3.05-3.57-2.04-6.31-4.82-8.21-8.34v10.45H0V62.24h30.12v34.33c1.9-3.53,4.64-6.31,8.21-8.34Zm10.79,26.66c-2.08-2.26-4.75-3.39-8.01-3.39s-5.93,1.13-8.01,3.39c-2.08,2.26-3.12,5.43-3.12,9.5s1.04,7.24,3.12,9.5c2.08,2.26,4.75,3.39,8.01,3.39s5.92-1.13,8.01-3.39c2.08-2.26,3.12-5.43,3.12-9.5s-1.04-7.23-3.12-9.5Zm116.81,14.79h-48.43c.45,6.6,3.21,9.91,8.27,9.91,3.26,0,5.61-1.49,7.06-4.48h31.88c-1.08,5.43-3.37,10.29-6.85,14.58-3.49,4.3-7.87,7.69-13.16,10.17-5.29,2.49-11.11,3.73-17.44,3.73-7.59,0-14.36-1.58-20.28-4.75-5.93-3.16-10.54-7.71-13.84-13.63-3.3-5.92-4.95-12.87-4.95-20.83s1.65-14.9,4.95-20.83c3.31-5.92,7.91-10.47,13.84-13.64,5.92-3.17,12.68-4.75,20.28-4.75s14.36,1.56,20.29,4.68c5.92,3.12,10.54,7.58,13.84,13.36,3.3,5.79,4.95,12.61,4.95,20.48,0,2.08-.14,4.07-.41,5.97Zm-30.12-13.16c0-2.53-.82-4.45-2.44-5.77-1.63-1.31-3.66-1.97-6.11-1.97-5.33,0-8.46,2.58-9.36,7.73h17.91Zm113.69,13.16h-48.43c.45,6.6,3.21,9.91,8.27,9.91,3.26,0,5.61-1.49,7.06-4.48h31.88c-1.08,5.43-3.37,10.29-6.85,14.58-3.49,4.3-7.87,7.69-13.16,10.17-5.29,2.49-11.11,3.73-17.44,3.73-7.59,0-14.36-1.58-20.28-4.75-5.93-3.16-10.54-7.71-13.84-13.63-3.3-5.92-4.95-12.87-4.95-20.83s1.65-14.9,4.95-20.83c3.31-5.92,7.91-10.47,13.84-13.64,5.92-3.17,12.68-4.75,20.28-4.75s14.36,1.56,20.29,4.68c5.92,3.12,10.54,7.58,13.84,13.36,3.3,5.79,4.95,12.61,4.95,20.48,0,2.08-.14,4.07-.41,5.97Zm-30.12-13.16c0-2.53-.82-4.45-2.44-5.77-1.63-1.31-3.66-1.97-6.11-1.97-5.33,0-8.46,2.58-9.36,7.73h17.91Zm54.88,43.55c-5.56-2.35-9.97-5.61-13.23-9.77-3.26-4.16-5.11-8.86-5.56-14.11h28.9c.36,2.26,1.33,3.94,2.91,5.02,1.58,1.08,3.6,1.63,6.04,1.63,1.53,0,2.75-.34,3.66-1.02.91-.68,1.36-1.51,1.36-2.51,0-1.72-.96-2.94-2.85-3.66-1.9-.73-5.11-1.54-9.63-2.44-5.52-1.08-10.06-2.26-13.64-3.53-3.57-1.27-6.69-3.43-9.36-6.51-2.67-3.08-4-7.33-4-12.75,0-4.7,1.24-8.97,3.73-12.82,2.49-3.85,6.17-6.87,11.06-9.09,4.88-2.22,10.8-3.33,17.77-3.33,10.31,0,18.39,2.53,24.22,7.6,5.84,5.07,9.34,11.67,10.52,19.81h-26.73c-.45-2.08-1.4-3.68-2.85-4.82-1.45-1.13-3.4-1.69-5.84-1.69-1.54,0-2.71.29-3.53.88-.81.59-1.22,1.47-1.22,2.64,0,1.54.95,2.7,2.85,3.46,1.9.77,4.93,1.56,9.09,2.37,5.52,1.08,10.18,2.3,13.97,3.66,3.8,1.36,7.1,3.69,9.91,6.99,2.8,3.3,4.2,7.85,4.2,13.64,0,4.52-1.31,8.59-3.94,12.21-2.62,3.62-6.39,6.47-11.32,8.55-4.93,2.08-10.7,3.12-17.3,3.12-7.24,0-13.63-1.17-19.2-3.52Zm137.85-65.67c4.92,5.88,7.39,13.84,7.39,23.88v44.36h-29.98v-40.57c0-3.62-.97-6.49-2.91-8.62-1.95-2.12-4.55-3.19-7.8-3.19s-5.97,1.06-7.87,3.19c-1.9,2.13-2.85,5-2.85,8.62v40.57h-30.12V62.24h30.12v35.55c2.35-3.62,5.49-6.55,9.43-8.82,3.93-2.26,8.62-3.39,14.04-3.39,8.77,0,15.62,2.94,20.56,8.82Zm36.01,64.44c-6.15-3.16-10.97-7.71-14.45-13.63-3.48-5.92-5.22-12.87-5.22-20.83s1.74-14.9,5.22-20.83c3.48-5.92,8.3-10.47,14.45-13.64,6.15-3.17,13.07-4.75,20.76-4.75s14.61,1.58,20.76,4.75c6.15,3.17,10.96,7.71,14.45,13.64,3.48,5.92,5.22,12.87,5.22,20.83s-1.74,14.9-5.22,20.83c-3.49,5.92-8.3,10.47-14.45,13.63-6.15,3.17-13.07,4.75-20.76,4.75s-14.61-1.58-20.76-4.75Zm27.82-24.62c1.9-2.21,2.85-5.49,2.85-9.84s-.95-7.62-2.85-9.84c-1.9-2.22-4.25-3.33-7.06-3.33s-5.15,1.11-7.06,3.33c-1.9,2.22-2.85,5.49-2.85,9.84s.93,7.62,2.78,9.84c1.85,2.22,4.23,3.32,7.12,3.32s5.15-1.11,7.06-3.32Zm81.2-45.99c3.57-2.04,7.84-3.05,12.82-3.05,5.97,0,11.35,1.56,16.14,4.68,4.79,3.12,8.57,7.64,11.33,13.57,2.75,5.92,4.14,12.91,4.14,20.96s-1.38,15.04-4.14,20.96c-2.76,5.92-6.54,10.45-11.33,13.57-4.8,3.12-10.17,4.68-16.14,4.68-4.98,0-9.25-1.01-12.82-3.05-3.57-2.04-6.31-4.82-8.21-8.34v47.08h-30.12v-113.15h30.12v10.45c1.9-3.53,4.64-6.31,8.21-8.34Zm10.79,26.66c-2.08-2.26-4.75-3.39-8.01-3.39s-5.93,1.13-8.01,3.39c-2.08,2.26-3.12,5.43-3.12,9.5s1.04,7.24,3.12,9.5c2.08,2.26,4.75,3.39,8.01,3.39s5.92-1.13,8.01-3.39c2.08-2.26,3.12-5.43,3.12-9.5s-1.04-7.23-3.12-9.5Z"/>
    </g>
  </g>
</svg>